G04 #@! TF.FileFunction,Copper,L2,Bot,Signal*
%FSLAX46Y46*%
G04 Gerber Fmt 4.6, Leading zero omitted, Abs format (unit mm)*
G04 Created by KiCad (PCBNEW 4.0.4-stable) date 06/07/18 19:23:55*
%MOMM*%
%LPD*%
G01*
G04 APERTURE LIST*
%ADD10C,0.100000*%
%ADD11C,0.300000*%
%ADD12O,3.010000X1.510000*%
%ADD13O,1.510000X3.000000*%
%ADD14R,1.600000X2.400000*%
%ADD15O,1.600000X2.400000*%
%ADD16R,2.000000X2.000000*%
%ADD17C,2.000000*%
%ADD18R,3.000000X1.510000*%
%ADD19O,3.000000X1.510000*%
%ADD20O,1.510000X3.010000*%
%ADD21O,2.000000X1.600000*%
%ADD22O,2.000000X2.000000*%
%ADD23R,2.200000X1.700000*%
%ADD24O,2.200000X1.700000*%
%ADD25C,1.400000*%
%ADD26C,0.508000*%
%ADD27C,0.406400*%
%ADD28C,0.609600*%
%ADD29C,0.304800*%
G04 APERTURE END LIST*
D10*
D11*
X138719286Y-128759857D02*
X138505000Y-128856619D01*
X138433572Y-128953381D01*
X138362143Y-129146905D01*
X138362143Y-129437190D01*
X138433572Y-129630714D01*
X138505000Y-129727476D01*
X138647858Y-129824238D01*
X139219286Y-129824238D01*
X139219286Y-127792238D01*
X138719286Y-127792238D01*
X138576429Y-127889000D01*
X138505000Y-127985762D01*
X138433572Y-128179286D01*
X138433572Y-128372810D01*
X138505000Y-128566333D01*
X138576429Y-128663095D01*
X138719286Y-128759857D01*
X139219286Y-128759857D01*
X137433572Y-127792238D02*
X137147858Y-127792238D01*
X137005000Y-127889000D01*
X136862143Y-128082524D01*
X136790715Y-128469571D01*
X136790715Y-129146905D01*
X136862143Y-129533952D01*
X137005000Y-129727476D01*
X137147858Y-129824238D01*
X137433572Y-129824238D01*
X137576429Y-129727476D01*
X137719286Y-129533952D01*
X137790715Y-129146905D01*
X137790715Y-128469571D01*
X137719286Y-128082524D01*
X137576429Y-127889000D01*
X137433572Y-127792238D01*
X136362143Y-127792238D02*
X135505000Y-127792238D01*
X135933571Y-129824238D02*
X135933571Y-127792238D01*
X135219286Y-127792238D02*
X134362143Y-127792238D01*
X134790714Y-129824238D02*
X134790714Y-127792238D01*
X133576429Y-127792238D02*
X133290715Y-127792238D01*
X133147857Y-127889000D01*
X133005000Y-128082524D01*
X132933572Y-128469571D01*
X132933572Y-129146905D01*
X133005000Y-129533952D01*
X133147857Y-129727476D01*
X133290715Y-129824238D01*
X133576429Y-129824238D01*
X133719286Y-129727476D01*
X133862143Y-129533952D01*
X133933572Y-129146905D01*
X133933572Y-128469571D01*
X133862143Y-128082524D01*
X133719286Y-127889000D01*
X133576429Y-127792238D01*
X132290714Y-129824238D02*
X132290714Y-127792238D01*
X131790714Y-129243667D01*
X131290714Y-127792238D01*
X131290714Y-129824238D01*
D12*
X172085000Y-102870000D03*
X172085000Y-100330000D03*
X149860000Y-113030000D03*
X149860000Y-110490000D03*
D13*
X142151100Y-129133600D03*
X147231100Y-129133600D03*
X149771100Y-129133600D03*
X152311100Y-129133600D03*
X154851100Y-129133600D03*
X157391100Y-129133600D03*
X159931100Y-129133600D03*
X165011100Y-129133600D03*
X175171100Y-129133600D03*
X177711100Y-129133600D03*
X177711100Y-80873600D03*
X140627100Y-80873600D03*
X138087100Y-80873600D03*
X135547100Y-80873600D03*
X133007100Y-80873600D03*
X144691100Y-129133600D03*
X167551100Y-129133600D03*
X170091100Y-129133600D03*
X172631100Y-129133600D03*
X175171100Y-80873600D03*
X172631100Y-80873600D03*
X170091100Y-80873600D03*
X167551100Y-80873600D03*
X165011100Y-80873600D03*
X162471100Y-80873600D03*
X159931100Y-80873600D03*
X155867100Y-80873600D03*
X153327100Y-80873600D03*
X150787100Y-80873600D03*
X148247100Y-80873600D03*
X145707100Y-80873600D03*
X143167100Y-80873600D03*
D14*
X149860000Y-96520000D03*
D15*
X132080000Y-104140000D03*
X147320000Y-96520000D03*
X134620000Y-104140000D03*
X144780000Y-96520000D03*
X137160000Y-104140000D03*
X142240000Y-96520000D03*
X139700000Y-104140000D03*
X139700000Y-96520000D03*
X142240000Y-104140000D03*
X137160000Y-96520000D03*
X144780000Y-104140000D03*
X134620000Y-96520000D03*
X147320000Y-104140000D03*
X132080000Y-96520000D03*
X149860000Y-104140000D03*
D16*
X121920000Y-105410000D03*
D17*
X121920000Y-113010000D03*
D18*
X179070000Y-109220000D03*
D19*
X179070000Y-106680000D03*
X179070000Y-104140000D03*
X179070000Y-101600000D03*
D20*
X170180000Y-114300000D03*
X167640000Y-114300000D03*
X165100000Y-114300000D03*
X162560000Y-114300000D03*
X160020000Y-114300000D03*
X157480000Y-114300000D03*
D21*
X156210000Y-98425000D03*
X163830000Y-98425000D03*
X163830000Y-94615000D03*
X156210000Y-94615000D03*
D12*
X123825000Y-123190000D03*
X123825000Y-120650000D03*
X123825000Y-118110000D03*
X133985000Y-123190000D03*
X133985000Y-120650000D03*
X133985000Y-118110000D03*
X144145000Y-123190000D03*
X144145000Y-120650000D03*
X144145000Y-118110000D03*
X155575000Y-123190000D03*
X155575000Y-120650000D03*
X155575000Y-118110000D03*
X166370000Y-123190000D03*
X166370000Y-120650000D03*
X166370000Y-118110000D03*
X175895000Y-123190000D03*
X175895000Y-120650000D03*
X175895000Y-118110000D03*
D17*
X171450000Y-96520000D03*
D22*
X179070000Y-96520000D03*
D17*
X127635000Y-100965000D03*
D22*
X120015000Y-100965000D03*
D12*
X156210000Y-86360000D03*
X156210000Y-88900000D03*
X156210000Y-91440000D03*
X146685000Y-86360000D03*
X146685000Y-88900000D03*
X146685000Y-91440000D03*
X137160000Y-86360000D03*
X137160000Y-88900000D03*
X137160000Y-91440000D03*
X127635000Y-86360000D03*
X127635000Y-88900000D03*
X127635000Y-91440000D03*
X165735000Y-86360000D03*
X165735000Y-88900000D03*
X165735000Y-91440000D03*
X175260000Y-86360000D03*
X175260000Y-88900000D03*
X175260000Y-91440000D03*
D23*
X140335000Y-109220000D03*
D24*
X140335000Y-111760000D03*
X140335000Y-114300000D03*
D20*
X132715000Y-111125000D03*
X130175000Y-111125000D03*
D23*
X136525000Y-114300000D03*
D24*
X136525000Y-111760000D03*
X136525000Y-109220000D03*
D25*
X119380000Y-88900000D03*
X149860000Y-107950000D03*
X130175000Y-124460000D03*
X142240000Y-101600000D03*
X163830000Y-101600000D03*
X123825000Y-93345000D03*
X153670000Y-103505000D03*
X153670000Y-99060000D03*
X168910000Y-93980000D03*
X151765000Y-85725000D03*
X129540000Y-98425000D03*
X167005000Y-83820000D03*
X162560000Y-107950000D03*
X174625000Y-96520000D03*
X170815000Y-93345000D03*
X171450000Y-84455000D03*
D26*
X156210000Y-88900000D02*
X165735000Y-88900000D01*
X138430000Y-120650000D02*
X138430000Y-122555000D01*
X152400000Y-126365000D02*
X152400000Y-129044700D01*
X151765000Y-125730000D02*
X152400000Y-126365000D01*
X139065000Y-125730000D02*
X151765000Y-125730000D01*
X138430000Y-125095000D02*
X139065000Y-125730000D01*
X138430000Y-122555000D02*
X138430000Y-125095000D01*
D27*
X119380000Y-88900000D02*
X127635000Y-88900000D01*
D26*
X146685000Y-88900000D02*
X137160000Y-88900000D01*
X156210000Y-88900000D02*
X146685000Y-88900000D01*
D27*
X152400000Y-129044700D02*
X152311100Y-129133600D01*
D26*
X149860000Y-104140000D02*
X149860000Y-106680000D01*
X149860000Y-106680000D02*
X149860000Y-107950000D01*
D28*
X154940000Y-88900000D02*
X156210000Y-88900000D01*
X123825000Y-120650000D02*
X128270000Y-120650000D01*
X128270000Y-120650000D02*
X133985000Y-120650000D01*
X166370000Y-120650000D02*
X175895000Y-120650000D01*
X155575000Y-120650000D02*
X161925000Y-120650000D01*
X161925000Y-120650000D02*
X166370000Y-120650000D01*
X144780000Y-120650000D02*
X138430000Y-120650000D01*
X138430000Y-120650000D02*
X133985000Y-120650000D01*
D27*
X155486100Y-120650000D02*
X155575000Y-120650000D01*
X127000000Y-96520000D02*
X125730000Y-96520000D01*
X132080000Y-96520000D02*
X127000000Y-96520000D01*
X134620000Y-109855000D02*
X136525000Y-111760000D01*
X134620000Y-107950000D02*
X134620000Y-109855000D01*
X133985000Y-107315000D02*
X134620000Y-107950000D01*
X128905000Y-107315000D02*
X133985000Y-107315000D01*
X125095000Y-103505000D02*
X128905000Y-107315000D01*
X125095000Y-97155000D02*
X125095000Y-103505000D01*
X125730000Y-96520000D02*
X125095000Y-97155000D01*
X159931100Y-130721100D02*
X159931100Y-130898900D01*
X159931100Y-130898900D02*
X159385000Y-131445000D01*
X159385000Y-131445000D02*
X130810000Y-131445000D01*
X130810000Y-131445000D02*
X130175000Y-130810000D01*
X130175000Y-130810000D02*
X130175000Y-124460000D01*
X159931100Y-130721100D02*
X159931100Y-129133600D01*
D28*
X179070000Y-96520000D02*
X179070000Y-101600000D01*
X130175000Y-111125000D02*
X130175000Y-118110000D01*
X121920000Y-113010000D02*
X121920000Y-116205000D01*
X121920000Y-116205000D02*
X123825000Y-118110000D01*
X154851100Y-126365000D02*
X154851100Y-126276100D01*
X154851100Y-126276100D02*
X153035000Y-124460000D01*
X148590000Y-120015000D02*
X148590000Y-118110000D01*
X148590000Y-123825000D02*
X148590000Y-120015000D01*
X149225000Y-124460000D02*
X148590000Y-123825000D01*
X153035000Y-124460000D02*
X149225000Y-124460000D01*
X154851100Y-129133600D02*
X154851100Y-126365000D01*
X175260000Y-91440000D02*
X178435000Y-91440000D01*
X179070000Y-92075000D02*
X179070000Y-96520000D01*
X178435000Y-91440000D02*
X179070000Y-92075000D01*
X165100000Y-114300000D02*
X165100000Y-106680000D01*
X163830000Y-105410000D02*
X163830000Y-101600000D01*
X165100000Y-106680000D02*
X163830000Y-105410000D01*
X163830000Y-101600000D02*
X163830000Y-98425000D01*
X156210000Y-91440000D02*
X165735000Y-91440000D01*
X117475000Y-104140000D02*
X117475000Y-112395000D01*
X117475000Y-100965000D02*
X117475000Y-104140000D01*
X118090000Y-113010000D02*
X121920000Y-113010000D01*
X117475000Y-112395000D02*
X118090000Y-113010000D01*
X133985000Y-118110000D02*
X144145000Y-118110000D01*
X166370000Y-118110000D02*
X175895000Y-118110000D01*
X165100000Y-114300000D02*
X165100000Y-115570000D01*
X165100000Y-115570000D02*
X166370000Y-116840000D01*
X166370000Y-116840000D02*
X166370000Y-118110000D01*
X155575000Y-118110000D02*
X166370000Y-118110000D01*
X144145000Y-118110000D02*
X148590000Y-118110000D01*
X148590000Y-118110000D02*
X151765000Y-118110000D01*
X151765000Y-118110000D02*
X155575000Y-118110000D01*
X133985000Y-118110000D02*
X130175000Y-118110000D01*
X130175000Y-118110000D02*
X123825000Y-118110000D01*
X120015000Y-100965000D02*
X117475000Y-100965000D01*
X117475000Y-100965000D02*
X117475000Y-92710000D01*
X117475000Y-92710000D02*
X118745000Y-91440000D01*
X118745000Y-91440000D02*
X127635000Y-91440000D01*
X133985000Y-91440000D02*
X133985000Y-85090000D01*
X140627100Y-83477100D02*
X140627100Y-80873600D01*
X140627100Y-83477100D02*
X139700000Y-84404200D01*
X139700000Y-84404200D02*
X134670800Y-84404200D01*
X134670800Y-84404200D02*
X133985000Y-85090000D01*
X137160000Y-91440000D02*
X133985000Y-91440000D01*
X133985000Y-91440000D02*
X127635000Y-91440000D01*
X146685000Y-91440000D02*
X137160000Y-91440000D01*
X156210000Y-91440000D02*
X146685000Y-91440000D01*
D26*
X142240000Y-104140000D02*
X139700000Y-104140000D01*
X142240000Y-101600000D02*
X142240000Y-104140000D01*
D28*
X142240000Y-96520000D02*
X142240000Y-101600000D01*
X139700000Y-96520000D02*
X142240000Y-96520000D01*
X154851100Y-129133600D02*
X157391100Y-129133600D01*
D27*
X172631100Y-129133600D02*
X172631100Y-126453900D01*
X157480000Y-125095000D02*
X155575000Y-123190000D01*
X158292800Y-125907800D02*
X157480000Y-125095000D01*
X172085000Y-125907800D02*
X158292800Y-125907800D01*
X172631100Y-126453900D02*
X172085000Y-125907800D01*
D29*
X181610000Y-83820000D02*
X181610000Y-79375000D01*
X145707100Y-79082900D02*
X146050000Y-78740000D01*
X146050000Y-78740000D02*
X180340000Y-78740000D01*
X181610000Y-83820000D02*
X181610000Y-106045000D01*
X181610000Y-106045000D02*
X180975000Y-106680000D01*
X179070000Y-106680000D02*
X180975000Y-106680000D01*
X145707100Y-79082900D02*
X145707100Y-80873600D01*
X180975000Y-78740000D02*
X180340000Y-78740000D01*
X181610000Y-79375000D02*
X180975000Y-78740000D01*
D27*
X148247100Y-79717900D02*
X148247100Y-80873600D01*
X147955000Y-80581500D02*
X148247100Y-80873600D01*
X144780000Y-96520000D02*
X144780000Y-93980000D01*
X123825000Y-93345000D02*
X144145000Y-93345000D01*
X144145000Y-93345000D02*
X144780000Y-93980000D01*
X153670000Y-99060000D02*
X153670000Y-103505000D01*
X140970000Y-106680000D02*
X141605000Y-106680000D01*
X141605000Y-106680000D02*
X142240000Y-106680000D01*
X142240000Y-106680000D02*
X142875000Y-107315000D01*
X142875000Y-107315000D02*
X142875000Y-112395000D01*
X142875000Y-112395000D02*
X143510000Y-113030000D01*
X143510000Y-113030000D02*
X149860000Y-113030000D01*
X137160000Y-104140000D02*
X137160000Y-106045000D01*
X137795000Y-106680000D02*
X137160000Y-106045000D01*
X140970000Y-106680000D02*
X137795000Y-106680000D01*
X144780000Y-106680000D02*
X144780000Y-109855000D01*
X144780000Y-109855000D02*
X145415000Y-110490000D01*
X145415000Y-110490000D02*
X149860000Y-110490000D01*
X144780000Y-104140000D02*
X144780000Y-106680000D01*
D29*
X168910000Y-83185000D02*
X169545000Y-83820000D01*
X168910000Y-83185000D02*
X168275000Y-82550000D01*
X168275000Y-81597500D02*
X168275000Y-82550000D01*
X168910000Y-92710000D02*
X168910000Y-93980000D01*
X169545000Y-92075000D02*
X168910000Y-92710000D01*
X169545000Y-83820000D02*
X169545000Y-92075000D01*
X168275000Y-81597500D02*
X167551100Y-80873600D01*
X129540000Y-98425000D02*
X130810000Y-99695000D01*
X152400000Y-83820000D02*
X154940000Y-83820000D01*
X151765000Y-84455000D02*
X152400000Y-83820000D01*
X155752800Y-83007200D02*
X155575000Y-83185000D01*
X159385000Y-83007200D02*
X155752800Y-83007200D01*
X159931100Y-82461100D02*
X159385000Y-83007200D01*
X159931100Y-80873600D02*
X159931100Y-82461100D01*
X134620000Y-102870000D02*
X133350000Y-101600000D01*
X134620000Y-102870000D02*
X134620000Y-104140000D01*
X154940000Y-83820000D02*
X155575000Y-83185000D01*
X151765000Y-85725000D02*
X151765000Y-84455000D01*
X131445000Y-99695000D02*
X133350000Y-101600000D01*
X130810000Y-99695000D02*
X131445000Y-99695000D01*
X167005000Y-92710000D02*
X167640000Y-92710000D01*
X150495000Y-98425000D02*
X151765000Y-98425000D01*
X147320000Y-99060000D02*
X147955000Y-98425000D01*
X147955000Y-98425000D02*
X150495000Y-98425000D01*
X147320000Y-99060000D02*
X147320000Y-104140000D01*
X153035000Y-92710000D02*
X167005000Y-92710000D01*
X152400000Y-93345000D02*
X153035000Y-92710000D01*
X152400000Y-96520000D02*
X152400000Y-93345000D01*
X152400000Y-97790000D02*
X152400000Y-96520000D01*
X151765000Y-98425000D02*
X152400000Y-97790000D01*
X167640000Y-83820000D02*
X167005000Y-83820000D01*
X168275000Y-84455000D02*
X167640000Y-83820000D01*
X168275000Y-91440000D02*
X168275000Y-84455000D01*
X168275000Y-92075000D02*
X168275000Y-91440000D01*
X167640000Y-92710000D02*
X168275000Y-92075000D01*
D27*
X166370000Y-123190000D02*
X172085000Y-123190000D01*
X175171100Y-126276100D02*
X175171100Y-129133600D01*
X172085000Y-123190000D02*
X175171100Y-126276100D01*
D29*
X177711100Y-129133600D02*
X177711100Y-125183900D01*
X177711100Y-125183900D02*
X175895000Y-123367800D01*
X175895000Y-123367800D02*
X175895000Y-123190000D01*
D27*
X175895000Y-123367800D02*
X175895000Y-123190000D01*
X175806100Y-123278900D02*
X175895000Y-123190000D01*
X156210000Y-98425000D02*
X159385000Y-98425000D01*
X160020000Y-100330000D02*
X160020000Y-114300000D01*
X160020000Y-99060000D02*
X160020000Y-100330000D01*
X159385000Y-98425000D02*
X160020000Y-99060000D01*
D29*
X156210000Y-95250000D02*
X156210000Y-98425000D01*
D27*
X177800000Y-80962500D02*
X177711100Y-80873600D01*
D29*
X162560000Y-114300000D02*
X162560000Y-107950000D01*
X172720000Y-94615000D02*
X173990000Y-95885000D01*
X172631100Y-82461100D02*
X173355000Y-83185000D01*
X173355000Y-83185000D02*
X173355000Y-85090000D01*
X173355000Y-85090000D02*
X172720000Y-85725000D01*
X172720000Y-85725000D02*
X172720000Y-94615000D01*
X174625000Y-96520000D02*
X173990000Y-95885000D01*
X172631100Y-82461100D02*
X172631100Y-80873600D01*
X174536100Y-96431100D02*
X174625000Y-96520000D01*
X170815000Y-93345000D02*
X170815000Y-94615000D01*
X170815000Y-93345000D02*
X171450000Y-92710000D01*
X171450000Y-84455000D02*
X171450000Y-92710000D01*
X171450000Y-95250000D02*
X171450000Y-96520000D01*
X170815000Y-94615000D02*
X171450000Y-95250000D01*
X170091100Y-82461100D02*
X170091100Y-83096100D01*
X170091100Y-80873600D02*
X170091100Y-82461100D01*
X170091100Y-83096100D02*
X171450000Y-84455000D01*
X156210000Y-86360000D02*
X158750000Y-86360000D01*
X165100000Y-83820000D02*
X165100000Y-80962500D01*
X163830000Y-85090000D02*
X165100000Y-83820000D01*
X160020000Y-85090000D02*
X163830000Y-85090000D01*
X159385000Y-85725000D02*
X160020000Y-85090000D01*
X158750000Y-86360000D02*
X159385000Y-85725000D01*
X165100000Y-80962500D02*
X165011100Y-80873600D01*
X127635000Y-100965000D02*
X127635000Y-103505000D01*
X128270000Y-104140000D02*
X132080000Y-104140000D01*
X127635000Y-103505000D02*
X128270000Y-104140000D01*
D27*
X156121100Y-86271100D02*
X156210000Y-86360000D01*
D29*
X153035000Y-87630000D02*
X153670000Y-86995000D01*
X158115000Y-83820000D02*
X161925000Y-83820000D01*
X161925000Y-83820000D02*
X162560000Y-83185000D01*
X162560000Y-80962500D02*
X162560000Y-83185000D01*
X156845000Y-83820000D02*
X158115000Y-83820000D01*
X153035000Y-87630000D02*
X149860000Y-87630000D01*
X148590000Y-86360000D02*
X146685000Y-86360000D01*
X149860000Y-87630000D02*
X148590000Y-86360000D01*
X156210000Y-84455000D02*
X156845000Y-83820000D01*
X154305000Y-84455000D02*
X156210000Y-84455000D01*
X153670000Y-85090000D02*
X154305000Y-84455000D01*
X153670000Y-86995000D02*
X153670000Y-85090000D01*
X162560000Y-80962500D02*
X162471100Y-80873600D01*
D27*
X162560000Y-80962500D02*
X162471100Y-80873600D01*
D29*
X137160000Y-86360000D02*
X140970000Y-86360000D01*
X153327100Y-82892900D02*
X153327100Y-80873600D01*
X153035000Y-83185000D02*
X153327100Y-82892900D01*
X142875000Y-83185000D02*
X153035000Y-83185000D01*
X142240000Y-83820000D02*
X142875000Y-83185000D01*
X142240000Y-85725000D02*
X142240000Y-83820000D01*
X141605000Y-86360000D02*
X142240000Y-85725000D01*
X140970000Y-86360000D02*
X141605000Y-86360000D01*
D27*
X138430000Y-86360000D02*
X137160000Y-86360000D01*
D26*
X132715000Y-111125000D02*
X132715000Y-113030000D01*
X133985000Y-114300000D02*
X136525000Y-114300000D01*
X132715000Y-113030000D02*
X133985000Y-114300000D01*
M02*
