G04 #@! TF.FileFunction,Other,Fab,Top*
%FSLAX46Y46*%
G04 Gerber Fmt 4.6, Leading zero omitted, Abs format (unit mm)*
G04 Created by KiCad (PCBNEW 4.0.4-stable) date 06/07/18 19:23:55*
%MOMM*%
%LPD*%
G01*
G04 APERTURE LIST*
%ADD10C,0.100000*%
%ADD11C,0.200000*%
%ADD12C,0.150000*%
%ADD13C,0.300000*%
G04 APERTURE END LIST*
D10*
D11*
X129540000Y-85090000D02*
X129540000Y-92710000D01*
X124460000Y-92710000D02*
X124460000Y-85090000D01*
X130810000Y-92710000D02*
X124460000Y-92710000D01*
X130810000Y-85090000D02*
X130810000Y-92710000D01*
X124460000Y-85090000D02*
X130810000Y-85090000D01*
X139065000Y-85090000D02*
X139065000Y-92710000D01*
X133985000Y-92710000D02*
X133985000Y-85090000D01*
X140335000Y-92710000D02*
X133985000Y-92710000D01*
X140335000Y-85090000D02*
X140335000Y-92710000D01*
X133985000Y-85090000D02*
X140335000Y-85090000D01*
X148590000Y-85090000D02*
X148590000Y-92710000D01*
X143510000Y-92710000D02*
X143510000Y-85090000D01*
X149860000Y-92710000D02*
X143510000Y-92710000D01*
X149860000Y-85090000D02*
X149860000Y-92710000D01*
X143510000Y-85090000D02*
X149860000Y-85090000D01*
X158115000Y-85090000D02*
X158115000Y-92710000D01*
X153035000Y-92710000D02*
X153035000Y-85090000D01*
X159385000Y-92710000D02*
X153035000Y-92710000D01*
X159385000Y-85090000D02*
X159385000Y-92710000D01*
X153035000Y-85090000D02*
X159385000Y-85090000D01*
X167640000Y-85090000D02*
X167640000Y-92710000D01*
X162560000Y-92710000D02*
X162560000Y-85090000D01*
X168910000Y-92710000D02*
X162560000Y-92710000D01*
X168910000Y-85090000D02*
X168910000Y-92710000D01*
X162560000Y-85090000D02*
X168910000Y-85090000D01*
X177165000Y-85090000D02*
X177165000Y-92710000D01*
X172085000Y-92710000D02*
X172085000Y-85090000D01*
X178435000Y-92710000D02*
X172085000Y-92710000D01*
X178435000Y-85090000D02*
X178435000Y-92710000D01*
X172085000Y-85090000D02*
X178435000Y-85090000D01*
D12*
X161409286Y-101413571D02*
X161909286Y-102913571D01*
X162409286Y-101413571D01*
X163552143Y-102842143D02*
X163409286Y-102913571D01*
X163123572Y-102913571D01*
X162980714Y-102842143D01*
X162909286Y-102770714D01*
X162837857Y-102627857D01*
X162837857Y-102199286D01*
X162909286Y-102056429D01*
X162980714Y-101985000D01*
X163123572Y-101913571D01*
X163409286Y-101913571D01*
X163552143Y-101985000D01*
X164837857Y-102842143D02*
X164695000Y-102913571D01*
X164409286Y-102913571D01*
X164266428Y-102842143D01*
X164195000Y-102770714D01*
X164123571Y-102627857D01*
X164123571Y-102199286D01*
X164195000Y-102056429D01*
X164266428Y-101985000D01*
X164409286Y-101913571D01*
X164695000Y-101913571D01*
X164837857Y-101985000D01*
X161659286Y-104588571D02*
X162159286Y-106088571D01*
X162659286Y-104588571D01*
X163159286Y-106088571D02*
X163159286Y-105088571D01*
X163159286Y-104588571D02*
X163087857Y-104660000D01*
X163159286Y-104731429D01*
X163230714Y-104660000D01*
X163159286Y-104588571D01*
X163159286Y-104731429D01*
X163873572Y-105088571D02*
X163873572Y-106088571D01*
X163873572Y-105231429D02*
X163945000Y-105160000D01*
X164087858Y-105088571D01*
X164302143Y-105088571D01*
X164445000Y-105160000D01*
X164516429Y-105302857D01*
X164516429Y-106088571D01*
X152812857Y-101413571D02*
X153312857Y-102913571D01*
X153812857Y-101413571D01*
X154312857Y-102913571D02*
X154312857Y-101913571D01*
X154312857Y-101413571D02*
X154241428Y-101485000D01*
X154312857Y-101556429D01*
X154384285Y-101485000D01*
X154312857Y-101413571D01*
X154312857Y-101556429D01*
X152562857Y-104588571D02*
X153062857Y-106088571D01*
X153562857Y-104588571D01*
X153920000Y-106088571D02*
X154705714Y-105088571D01*
X153920000Y-105088571D02*
X154705714Y-106088571D01*
D11*
X158750000Y-104140000D02*
X160655000Y-104140000D01*
X155575000Y-104140000D02*
X157480000Y-104140000D01*
X160655000Y-100965000D02*
X158750000Y-100965000D01*
X160655000Y-107315000D02*
X160655000Y-100965000D01*
X158750000Y-107315000D02*
X160655000Y-107315000D01*
X158750000Y-100965000D02*
X158750000Y-107315000D01*
X155575000Y-100965000D02*
X155575000Y-101600000D01*
X157480000Y-100965000D02*
X155575000Y-100965000D01*
X157480000Y-107315000D02*
X157480000Y-100965000D01*
X155575000Y-107315000D02*
X157480000Y-107315000D01*
X155575000Y-101600000D02*
X155575000Y-107315000D01*
X128905000Y-113030000D02*
X133985000Y-113030000D01*
X128905000Y-114300000D02*
X128905000Y-107950000D01*
X133985000Y-114300000D02*
X128905000Y-114300000D01*
X133985000Y-107950000D02*
X133985000Y-114300000D01*
X128905000Y-107950000D02*
X133985000Y-107950000D01*
X121920000Y-116840000D02*
X121920000Y-124460000D01*
X132080000Y-116840000D02*
X132080000Y-124460000D01*
X142240000Y-116840000D02*
X142240000Y-124460000D01*
X153670000Y-116840000D02*
X153670000Y-124460000D01*
X164465000Y-116840000D02*
X164465000Y-124460000D01*
X173990000Y-116840000D02*
X173990000Y-124460000D01*
X170180000Y-99060000D02*
X170180000Y-104140000D01*
X168910000Y-104140000D02*
X168910000Y-99060000D01*
X175260000Y-104140000D02*
X168910000Y-104140000D01*
X175260000Y-99060000D02*
X175260000Y-104140000D01*
X168910000Y-99060000D02*
X175260000Y-99060000D01*
X147955000Y-109220000D02*
X147955000Y-114300000D01*
X146685000Y-114300000D02*
X146685000Y-109220000D01*
X153035000Y-114300000D02*
X146685000Y-114300000D01*
X153035000Y-109220000D02*
X153035000Y-114300000D01*
X146685000Y-109220000D02*
X153035000Y-109220000D01*
X120650000Y-124460000D02*
X120650000Y-116840000D01*
X127000000Y-124460000D02*
X120650000Y-124460000D01*
X127000000Y-116840000D02*
X127000000Y-124460000D01*
X120650000Y-116840000D02*
X127000000Y-116840000D01*
X163830000Y-130302000D02*
X163830000Y-127762000D01*
X179070000Y-130302000D02*
X163830000Y-130302000D01*
X179070000Y-127762000D02*
X179070000Y-130302000D01*
X163830000Y-127762000D02*
X179070000Y-127762000D01*
X140970000Y-130302000D02*
X140970000Y-127762000D01*
X161036000Y-130302000D02*
X140970000Y-130302000D01*
X161036000Y-127762000D02*
X161036000Y-130302000D01*
X140970000Y-127762000D02*
X161036000Y-127762000D01*
X131064000Y-116840000D02*
X137160000Y-116840000D01*
X131064000Y-124460000D02*
X131064000Y-116840000D01*
X137160000Y-124460000D02*
X131064000Y-124460000D01*
X137160000Y-116840000D02*
X137160000Y-124460000D01*
X140970000Y-124460000D02*
X140970000Y-116840000D01*
X147320000Y-124460000D02*
X140970000Y-124460000D01*
X147320000Y-116840000D02*
X147320000Y-124460000D01*
X140970000Y-116840000D02*
X147320000Y-116840000D01*
X172720000Y-124460000D02*
X172720000Y-116840000D01*
X179070000Y-124460000D02*
X172720000Y-124460000D01*
X179070000Y-116840000D02*
X179070000Y-124460000D01*
X172720000Y-116840000D02*
X179070000Y-116840000D01*
X163322000Y-124460000D02*
X163322000Y-116840000D01*
X169418000Y-124460000D02*
X163322000Y-124460000D01*
X169418000Y-116840000D02*
X169418000Y-124460000D01*
X163322000Y-116840000D02*
X169418000Y-116840000D01*
X152400000Y-124460000D02*
X152400000Y-116840000D01*
X158750000Y-124460000D02*
X152400000Y-124460000D01*
X158750000Y-116840000D02*
X158750000Y-124460000D01*
X152400000Y-116840000D02*
X158750000Y-116840000D01*
X156210000Y-111252000D02*
X156464000Y-111252000D01*
X156210000Y-116332000D02*
X156210000Y-111252000D01*
X171450000Y-116332000D02*
X156210000Y-116332000D01*
X171450000Y-111252000D02*
X171450000Y-116332000D01*
X156464000Y-111252000D02*
X171450000Y-111252000D01*
X131826000Y-82042000D02*
X157226000Y-82042000D01*
X131826000Y-79502000D02*
X131826000Y-82042000D01*
X157226000Y-79502000D02*
X131826000Y-79502000D01*
X157226000Y-82042000D02*
X157226000Y-79502000D01*
X158750000Y-79502000D02*
X179070000Y-79502000D01*
X158750000Y-82042000D02*
X158750000Y-79502000D01*
X179070000Y-82042000D02*
X158750000Y-82042000D01*
X179070000Y-79502000D02*
X179070000Y-82042000D01*
D13*
X116297143Y-81318571D02*
X115797143Y-80604286D01*
X115440000Y-81318571D02*
X115440000Y-79818571D01*
X116011428Y-79818571D01*
X116154286Y-79890000D01*
X116225714Y-79961429D01*
X116297143Y-80104286D01*
X116297143Y-80318571D01*
X116225714Y-80461429D01*
X116154286Y-80532857D01*
X116011428Y-80604286D01*
X115440000Y-80604286D01*
X117225714Y-79818571D02*
X117511428Y-79818571D01*
X117654286Y-79890000D01*
X117797143Y-80032857D01*
X117868571Y-80318571D01*
X117868571Y-80818571D01*
X117797143Y-81104286D01*
X117654286Y-81247143D01*
X117511428Y-81318571D01*
X117225714Y-81318571D01*
X117082857Y-81247143D01*
X116940000Y-81104286D01*
X116868571Y-80818571D01*
X116868571Y-80318571D01*
X116940000Y-80032857D01*
X117082857Y-79890000D01*
X117225714Y-79818571D01*
X119011429Y-80532857D02*
X119225715Y-80604286D01*
X119297143Y-80675714D01*
X119368572Y-80818571D01*
X119368572Y-81032857D01*
X119297143Y-81175714D01*
X119225715Y-81247143D01*
X119082857Y-81318571D01*
X118511429Y-81318571D01*
X118511429Y-79818571D01*
X119011429Y-79818571D01*
X119154286Y-79890000D01*
X119225715Y-79961429D01*
X119297143Y-80104286D01*
X119297143Y-80247143D01*
X119225715Y-80390000D01*
X119154286Y-80461429D01*
X119011429Y-80532857D01*
X118511429Y-80532857D01*
X120297143Y-79818571D02*
X120582857Y-79818571D01*
X120725715Y-79890000D01*
X120868572Y-80032857D01*
X120940000Y-80318571D01*
X120940000Y-80818571D01*
X120868572Y-81104286D01*
X120725715Y-81247143D01*
X120582857Y-81318571D01*
X120297143Y-81318571D01*
X120154286Y-81247143D01*
X120011429Y-81104286D01*
X119940000Y-80818571D01*
X119940000Y-80318571D01*
X120011429Y-80032857D01*
X120154286Y-79890000D01*
X120297143Y-79818571D01*
X121368572Y-79818571D02*
X122225715Y-79818571D01*
X121797144Y-81318571D02*
X121797144Y-79818571D01*
X123797143Y-81247143D02*
X124011429Y-81318571D01*
X124368572Y-81318571D01*
X124511429Y-81247143D01*
X124582858Y-81175714D01*
X124654286Y-81032857D01*
X124654286Y-80890000D01*
X124582858Y-80747143D01*
X124511429Y-80675714D01*
X124368572Y-80604286D01*
X124082858Y-80532857D01*
X123940000Y-80461429D01*
X123868572Y-80390000D01*
X123797143Y-80247143D01*
X123797143Y-80104286D01*
X123868572Y-79961429D01*
X123940000Y-79890000D01*
X124082858Y-79818571D01*
X124440000Y-79818571D01*
X124654286Y-79890000D01*
X125297143Y-81318571D02*
X125297143Y-79818571D01*
X125297143Y-80532857D02*
X126154286Y-80532857D01*
X126154286Y-81318571D02*
X126154286Y-79818571D01*
X126868572Y-81318571D02*
X126868572Y-79818571D01*
X127582858Y-80532857D02*
X128082858Y-80532857D01*
X128297144Y-81318571D02*
X127582858Y-81318571D01*
X127582858Y-79818571D01*
X128297144Y-79818571D01*
X129654287Y-81318571D02*
X128940001Y-81318571D01*
X128940001Y-79818571D01*
X130154287Y-81318571D02*
X130154287Y-79818571D01*
X130511430Y-79818571D01*
X130725715Y-79890000D01*
X130868573Y-80032857D01*
X130940001Y-80175714D01*
X131011430Y-80461429D01*
X131011430Y-80675714D01*
X130940001Y-80961429D01*
X130868573Y-81104286D01*
X130725715Y-81247143D01*
X130511430Y-81318571D01*
X130154287Y-81318571D01*
X120904286Y-82368571D02*
X121404286Y-83868571D01*
X121904286Y-82368571D01*
X123190000Y-83868571D02*
X122332857Y-83868571D01*
X122761429Y-83868571D02*
X122761429Y-82368571D01*
X122618572Y-82582857D01*
X122475714Y-82725714D01*
X122332857Y-82797143D01*
X123832857Y-83725714D02*
X123904285Y-83797143D01*
X123832857Y-83868571D01*
X123761428Y-83797143D01*
X123832857Y-83725714D01*
X123832857Y-83868571D01*
X125332857Y-83868571D02*
X124475714Y-83868571D01*
X124904286Y-83868571D02*
X124904286Y-82368571D01*
X124761429Y-82582857D01*
X124618571Y-82725714D01*
X124475714Y-82797143D01*
D10*
X151130000Y-98155000D02*
X151130000Y-103505000D01*
X151130000Y-103505000D02*
X130810000Y-103505000D01*
X130810000Y-103505000D02*
X130810000Y-97155000D01*
X130810000Y-97155000D02*
X150130000Y-97155000D01*
X150130000Y-97155000D02*
X151130000Y-98155000D01*
X127920000Y-109210000D02*
G75*
G03X127920000Y-109210000I-6000000J0D01*
G01*
X122920000Y-109210000D02*
G75*
G03X122920000Y-109210000I-1000000J0D01*
G01*
X180340000Y-110490000D02*
X180340000Y-100330000D01*
X180340000Y-100330000D02*
X177800000Y-100330000D01*
X177800000Y-100330000D02*
X177800000Y-110490000D01*
X177800000Y-110490000D02*
X180340000Y-110490000D01*
X158220000Y-97625000D02*
X158220000Y-99225000D01*
X158220000Y-99225000D02*
X161820000Y-99225000D01*
X161820000Y-99225000D02*
X161820000Y-97625000D01*
X161820000Y-97625000D02*
X158220000Y-97625000D01*
X156210000Y-98425000D02*
X158220000Y-98425000D01*
X163830000Y-98425000D02*
X161820000Y-98425000D01*
X161820000Y-95415000D02*
X161820000Y-93815000D01*
X161820000Y-93815000D02*
X158220000Y-93815000D01*
X158220000Y-93815000D02*
X158220000Y-95415000D01*
X158220000Y-95415000D02*
X161820000Y-95415000D01*
X163830000Y-94615000D02*
X161820000Y-94615000D01*
X156210000Y-94615000D02*
X158220000Y-94615000D01*
X173460000Y-95720000D02*
X173460000Y-97320000D01*
X173460000Y-97320000D02*
X177060000Y-97320000D01*
X177060000Y-97320000D02*
X177060000Y-95720000D01*
X177060000Y-95720000D02*
X173460000Y-95720000D01*
X171450000Y-96520000D02*
X173460000Y-96520000D01*
X179070000Y-96520000D02*
X177060000Y-96520000D01*
X125625000Y-101765000D02*
X125625000Y-100165000D01*
X125625000Y-100165000D02*
X122025000Y-100165000D01*
X122025000Y-100165000D02*
X122025000Y-101765000D01*
X122025000Y-101765000D02*
X125625000Y-101765000D01*
X127635000Y-100965000D02*
X125625000Y-100965000D01*
X120015000Y-100965000D02*
X122025000Y-100965000D01*
X139700000Y-107950000D02*
X141605000Y-107950000D01*
X141605000Y-107950000D02*
X141605000Y-115570000D01*
X141605000Y-115570000D02*
X139065000Y-115570000D01*
X139065000Y-115570000D02*
X139065000Y-108585000D01*
X139065000Y-108585000D02*
X139700000Y-107950000D01*
X137160000Y-115570000D02*
X135255000Y-115570000D01*
X135255000Y-115570000D02*
X135255000Y-107950000D01*
X135255000Y-107950000D02*
X137795000Y-107950000D01*
X137795000Y-107950000D02*
X137795000Y-114935000D01*
X137795000Y-114935000D02*
X137160000Y-115570000D01*
D12*
X170223571Y-107259285D02*
X168723571Y-107259285D01*
X169795000Y-106759285D01*
X168723571Y-106259285D01*
X170223571Y-106259285D01*
X170223571Y-104759285D02*
X170223571Y-105616428D01*
X170223571Y-105187856D02*
X168723571Y-105187856D01*
X168937857Y-105330713D01*
X169080714Y-105473571D01*
X169152143Y-105616428D01*
X155618571Y-111069285D02*
X154118571Y-111069285D01*
X155190000Y-110569285D01*
X154118571Y-110069285D01*
X155618571Y-110069285D01*
X154261429Y-109426428D02*
X154190000Y-109354999D01*
X154118571Y-109212142D01*
X154118571Y-108854999D01*
X154190000Y-108712142D01*
X154261429Y-108640713D01*
X154404286Y-108569285D01*
X154547143Y-108569285D01*
X154761429Y-108640713D01*
X155618571Y-109497856D01*
X155618571Y-108569285D01*
X128087381Y-97504047D02*
X128087381Y-97980238D01*
X127087381Y-97980238D01*
X127182619Y-97218333D02*
X127135000Y-97170714D01*
X127087381Y-97075476D01*
X127087381Y-96837380D01*
X127135000Y-96742142D01*
X127182619Y-96694523D01*
X127277857Y-96646904D01*
X127373095Y-96646904D01*
X127515952Y-96694523D01*
X128087381Y-97265952D01*
X128087381Y-96646904D01*
X128087381Y-96170714D02*
X128087381Y-95980238D01*
X128039762Y-95884999D01*
X127992143Y-95837380D01*
X127849286Y-95742142D01*
X127658810Y-95694523D01*
X127277857Y-95694523D01*
X127182619Y-95742142D01*
X127135000Y-95789761D01*
X127087381Y-95884999D01*
X127087381Y-96075476D01*
X127135000Y-96170714D01*
X127182619Y-96218333D01*
X127277857Y-96265952D01*
X127515952Y-96265952D01*
X127611190Y-96218333D01*
X127658810Y-96170714D01*
X127706429Y-96075476D01*
X127706429Y-95884999D01*
X127658810Y-95789761D01*
X127611190Y-95742142D01*
X127515952Y-95694523D01*
X127087381Y-95361190D02*
X127087381Y-94742142D01*
X127468333Y-95075476D01*
X127468333Y-94932618D01*
X127515952Y-94837380D01*
X127563571Y-94789761D01*
X127658810Y-94742142D01*
X127896905Y-94742142D01*
X127992143Y-94789761D01*
X128039762Y-94837380D01*
X128087381Y-94932618D01*
X128087381Y-95218333D01*
X128039762Y-95313571D01*
X127992143Y-95361190D01*
X128087381Y-94313571D02*
X127087381Y-94313571D01*
X127087381Y-94075476D01*
X127135000Y-93932618D01*
X127230238Y-93837380D01*
X127325476Y-93789761D01*
X127515952Y-93742142D01*
X127658810Y-93742142D01*
X127849286Y-93789761D01*
X127944524Y-93837380D01*
X128039762Y-93932618D01*
X128087381Y-94075476D01*
X128087381Y-94313571D01*
X118038571Y-120467142D02*
X118086190Y-120324285D01*
X118133810Y-120276666D01*
X118229048Y-120229047D01*
X118371905Y-120229047D01*
X118467143Y-120276666D01*
X118514762Y-120324285D01*
X118562381Y-120419523D01*
X118562381Y-120800476D01*
X117562381Y-120800476D01*
X117562381Y-120467142D01*
X117610000Y-120371904D01*
X117657619Y-120324285D01*
X117752857Y-120276666D01*
X117848095Y-120276666D01*
X117943333Y-120324285D01*
X117990952Y-120371904D01*
X118038571Y-120467142D01*
X118038571Y-120800476D01*
X117562381Y-119800476D02*
X118371905Y-119800476D01*
X118467143Y-119752857D01*
X118514762Y-119705238D01*
X118562381Y-119610000D01*
X118562381Y-119419523D01*
X118514762Y-119324285D01*
X118467143Y-119276666D01*
X118371905Y-119229047D01*
X117562381Y-119229047D01*
X117562381Y-118848095D02*
X117562381Y-118181428D01*
X118562381Y-118848095D01*
X118562381Y-118181428D01*
X117562381Y-117895714D02*
X117562381Y-117229047D01*
X118562381Y-117895714D01*
X118562381Y-117229047D01*
X118038571Y-116848095D02*
X118038571Y-116514761D01*
X118562381Y-116371904D02*
X118562381Y-116848095D01*
X117562381Y-116848095D01*
X117562381Y-116371904D01*
X118562381Y-115371904D02*
X118086190Y-115705238D01*
X118562381Y-115943333D02*
X117562381Y-115943333D01*
X117562381Y-115562380D01*
X117610000Y-115467142D01*
X117657619Y-115419523D01*
X117752857Y-115371904D01*
X117895714Y-115371904D01*
X117990952Y-115419523D01*
X118038571Y-115467142D01*
X118086190Y-115562380D01*
X118086190Y-115943333D01*
X124531429Y-105780952D02*
X124531429Y-105019047D01*
X124912381Y-105399999D02*
X124150476Y-105399999D01*
X116609762Y-118101905D02*
X116657381Y-117959048D01*
X116657381Y-117720952D01*
X116609762Y-117625714D01*
X116562143Y-117578095D01*
X116466905Y-117530476D01*
X116371667Y-117530476D01*
X116276429Y-117578095D01*
X116228810Y-117625714D01*
X116181190Y-117720952D01*
X116133571Y-117911429D01*
X116085952Y-118006667D01*
X116038333Y-118054286D01*
X115943095Y-118101905D01*
X115847857Y-118101905D01*
X115752619Y-118054286D01*
X115705000Y-118006667D01*
X115657381Y-117911429D01*
X115657381Y-117673333D01*
X115705000Y-117530476D01*
X116657381Y-117101905D02*
X115657381Y-117101905D01*
X115657381Y-116720952D01*
X115705000Y-116625714D01*
X115752619Y-116578095D01*
X115847857Y-116530476D01*
X115990714Y-116530476D01*
X116085952Y-116578095D01*
X116133571Y-116625714D01*
X116181190Y-116720952D01*
X116181190Y-117101905D01*
X116657381Y-115578095D02*
X116657381Y-116149524D01*
X116657381Y-115863810D02*
X115657381Y-115863810D01*
X115800238Y-115959048D01*
X115895476Y-116054286D01*
X115943095Y-116149524D01*
X177927143Y-112208571D02*
X177927143Y-113422857D01*
X177998571Y-113565714D01*
X178070000Y-113637143D01*
X178212857Y-113708571D01*
X178498571Y-113708571D01*
X178641429Y-113637143D01*
X178712857Y-113565714D01*
X178784286Y-113422857D01*
X178784286Y-112208571D01*
X179427143Y-113637143D02*
X179641429Y-113708571D01*
X179998572Y-113708571D01*
X180141429Y-113637143D01*
X180212858Y-113565714D01*
X180284286Y-113422857D01*
X180284286Y-113280000D01*
X180212858Y-113137143D01*
X180141429Y-113065714D01*
X179998572Y-112994286D01*
X179712858Y-112922857D01*
X179570000Y-112851429D01*
X179498572Y-112780000D01*
X179427143Y-112637143D01*
X179427143Y-112494286D01*
X179498572Y-112351429D01*
X179570000Y-112280000D01*
X179712858Y-112208571D01*
X180070000Y-112208571D01*
X180284286Y-112280000D01*
X178331905Y-112002381D02*
X178331905Y-111002381D01*
X178712858Y-111002381D01*
X178808096Y-111050000D01*
X178855715Y-111097619D01*
X178903334Y-111192857D01*
X178903334Y-111335714D01*
X178855715Y-111430952D01*
X178808096Y-111478571D01*
X178712858Y-111526190D01*
X178331905Y-111526190D01*
X179760477Y-111002381D02*
X179570000Y-111002381D01*
X179474762Y-111050000D01*
X179427143Y-111097619D01*
X179331905Y-111240476D01*
X179284286Y-111430952D01*
X179284286Y-111811905D01*
X179331905Y-111907143D01*
X179379524Y-111954762D01*
X179474762Y-112002381D01*
X179665239Y-112002381D01*
X179760477Y-111954762D01*
X179808096Y-111907143D01*
X179855715Y-111811905D01*
X179855715Y-111573810D01*
X179808096Y-111478571D01*
X179760477Y-111430952D01*
X179665239Y-111383333D01*
X179474762Y-111383333D01*
X179379524Y-111430952D01*
X179331905Y-111478571D01*
X179284286Y-111573810D01*
X173247857Y-114764285D02*
X173319286Y-114549999D01*
X173390714Y-114478571D01*
X173533571Y-114407142D01*
X173747857Y-114407142D01*
X173890714Y-114478571D01*
X173962143Y-114549999D01*
X174033571Y-114692857D01*
X174033571Y-115264285D01*
X172533571Y-115264285D01*
X172533571Y-114764285D01*
X172605000Y-114621428D01*
X172676429Y-114549999D01*
X172819286Y-114478571D01*
X172962143Y-114478571D01*
X173105000Y-114549999D01*
X173176429Y-114621428D01*
X173247857Y-114764285D01*
X173247857Y-115264285D01*
X172533571Y-113978571D02*
X172533571Y-113121428D01*
X174033571Y-113549999D02*
X172533571Y-113549999D01*
X165743095Y-97972619D02*
X165790714Y-97925000D01*
X165885952Y-97877381D01*
X166124048Y-97877381D01*
X166219286Y-97925000D01*
X166266905Y-97972619D01*
X166314524Y-98067857D01*
X166314524Y-98163095D01*
X166266905Y-98305952D01*
X165695476Y-98877381D01*
X166314524Y-98877381D01*
X166743095Y-98877381D02*
X166743095Y-97877381D01*
X167314524Y-98877381D02*
X166885952Y-98305952D01*
X167314524Y-97877381D02*
X166743095Y-98448810D01*
X167647857Y-97877381D02*
X168314524Y-97877381D01*
X167885952Y-98877381D01*
X166314524Y-95702381D02*
X165743095Y-95702381D01*
X166028809Y-95702381D02*
X166028809Y-94702381D01*
X165933571Y-94845238D01*
X165838333Y-94940476D01*
X165743095Y-94988095D01*
X166743095Y-95702381D02*
X166743095Y-94702381D01*
X167314524Y-95702381D02*
X166885952Y-95130952D01*
X167314524Y-94702381D02*
X166743095Y-95273810D01*
X168219286Y-94702381D02*
X167743095Y-94702381D01*
X167695476Y-95178571D01*
X167743095Y-95130952D01*
X167838333Y-95083333D01*
X168076429Y-95083333D01*
X168171667Y-95130952D01*
X168219286Y-95178571D01*
X168266905Y-95273810D01*
X168266905Y-95511905D01*
X168219286Y-95607143D01*
X168171667Y-95654762D01*
X168076429Y-95702381D01*
X167838333Y-95702381D01*
X167743095Y-95654762D01*
X167695476Y-95607143D01*
X128797857Y-121685714D02*
X128797857Y-121185714D01*
X129583571Y-120971428D02*
X129583571Y-121685714D01*
X128083571Y-121685714D01*
X128083571Y-120971428D01*
X129583571Y-119542857D02*
X129583571Y-120400000D01*
X129583571Y-119971428D02*
X128083571Y-119971428D01*
X128297857Y-120114285D01*
X128440714Y-120257143D01*
X128512143Y-120400000D01*
X138957857Y-121685714D02*
X138957857Y-121185714D01*
X139743571Y-120971428D02*
X139743571Y-121685714D01*
X138243571Y-121685714D01*
X138243571Y-120971428D01*
X138386429Y-120400000D02*
X138315000Y-120328571D01*
X138243571Y-120185714D01*
X138243571Y-119828571D01*
X138315000Y-119685714D01*
X138386429Y-119614285D01*
X138529286Y-119542857D01*
X138672143Y-119542857D01*
X138886429Y-119614285D01*
X139743571Y-120471428D01*
X139743571Y-119542857D01*
X149117857Y-121685714D02*
X149117857Y-121185714D01*
X149903571Y-120971428D02*
X149903571Y-121685714D01*
X148403571Y-121685714D01*
X148403571Y-120971428D01*
X148403571Y-120471428D02*
X148403571Y-119542857D01*
X148975000Y-120042857D01*
X148975000Y-119828571D01*
X149046429Y-119685714D01*
X149117857Y-119614285D01*
X149260714Y-119542857D01*
X149617857Y-119542857D01*
X149760714Y-119614285D01*
X149832143Y-119685714D01*
X149903571Y-119828571D01*
X149903571Y-120257143D01*
X149832143Y-120400000D01*
X149760714Y-120471428D01*
X160547857Y-121685714D02*
X160547857Y-121185714D01*
X161333571Y-120971428D02*
X161333571Y-121685714D01*
X159833571Y-121685714D01*
X159833571Y-120971428D01*
X160333571Y-119685714D02*
X161333571Y-119685714D01*
X159762143Y-120042857D02*
X160833571Y-120400000D01*
X160833571Y-119471428D01*
X170707857Y-121685714D02*
X170707857Y-121185714D01*
X171493571Y-120971428D02*
X171493571Y-121685714D01*
X169993571Y-121685714D01*
X169993571Y-120971428D01*
X169993571Y-119614285D02*
X169993571Y-120328571D01*
X170707857Y-120400000D01*
X170636429Y-120328571D01*
X170565000Y-120185714D01*
X170565000Y-119828571D01*
X170636429Y-119685714D01*
X170707857Y-119614285D01*
X170850714Y-119542857D01*
X171207857Y-119542857D01*
X171350714Y-119614285D01*
X171422143Y-119685714D01*
X171493571Y-119828571D01*
X171493571Y-120185714D01*
X171422143Y-120328571D01*
X171350714Y-120400000D01*
X180867857Y-121685714D02*
X180867857Y-121185714D01*
X181653571Y-120971428D02*
X181653571Y-121685714D01*
X180153571Y-121685714D01*
X180153571Y-120971428D01*
X180153571Y-119685714D02*
X180153571Y-119971428D01*
X180225000Y-120114285D01*
X180296429Y-120185714D01*
X180510714Y-120328571D01*
X180796429Y-120400000D01*
X181367857Y-120400000D01*
X181510714Y-120328571D01*
X181582143Y-120257143D01*
X181653571Y-120114285D01*
X181653571Y-119828571D01*
X181582143Y-119685714D01*
X181510714Y-119614285D01*
X181367857Y-119542857D01*
X181010714Y-119542857D01*
X180867857Y-119614285D01*
X180796429Y-119685714D01*
X180725000Y-119828571D01*
X180725000Y-120114285D01*
X180796429Y-120257143D01*
X180867857Y-120328571D01*
X181010714Y-120400000D01*
X175204524Y-95067381D02*
X174633095Y-95067381D01*
X174918809Y-95067381D02*
X174918809Y-94067381D01*
X174823571Y-94210238D01*
X174728333Y-94305476D01*
X174633095Y-94353095D01*
X175823571Y-94067381D02*
X175918810Y-94067381D01*
X176014048Y-94115000D01*
X176061667Y-94162619D01*
X176109286Y-94257857D01*
X176156905Y-94448333D01*
X176156905Y-94686429D01*
X176109286Y-94876905D01*
X176061667Y-94972143D01*
X176014048Y-95019762D01*
X175918810Y-95067381D01*
X175823571Y-95067381D01*
X175728333Y-95019762D01*
X175680714Y-94972143D01*
X175633095Y-94876905D01*
X175585476Y-94686429D01*
X175585476Y-94448333D01*
X175633095Y-94257857D01*
X175680714Y-94162619D01*
X175728333Y-94115000D01*
X175823571Y-94067381D01*
X176585476Y-95067381D02*
X176585476Y-94067381D01*
X177156905Y-95067381D02*
X176728333Y-94495952D01*
X177156905Y-94067381D02*
X176585476Y-94638810D01*
X123134524Y-99557381D02*
X122563095Y-99557381D01*
X122848809Y-99557381D02*
X122848809Y-98557381D01*
X122753571Y-98700238D01*
X122658333Y-98795476D01*
X122563095Y-98843095D01*
X123753571Y-98557381D02*
X123848810Y-98557381D01*
X123944048Y-98605000D01*
X123991667Y-98652619D01*
X124039286Y-98747857D01*
X124086905Y-98938333D01*
X124086905Y-99176429D01*
X124039286Y-99366905D01*
X123991667Y-99462143D01*
X123944048Y-99509762D01*
X123848810Y-99557381D01*
X123753571Y-99557381D01*
X123658333Y-99509762D01*
X123610714Y-99462143D01*
X123563095Y-99366905D01*
X123515476Y-99176429D01*
X123515476Y-98938333D01*
X123563095Y-98747857D01*
X123610714Y-98652619D01*
X123658333Y-98605000D01*
X123753571Y-98557381D01*
X124515476Y-99557381D02*
X124515476Y-98557381D01*
X125086905Y-99557381D02*
X124658333Y-98985952D01*
X125086905Y-98557381D02*
X124515476Y-99128810D01*
X161262143Y-90042857D02*
X161333571Y-89828571D01*
X161333571Y-89471428D01*
X161262143Y-89328571D01*
X161190714Y-89257142D01*
X161047857Y-89185714D01*
X160905000Y-89185714D01*
X160762143Y-89257142D01*
X160690714Y-89328571D01*
X160619286Y-89471428D01*
X160547857Y-89757142D01*
X160476429Y-89900000D01*
X160405000Y-89971428D01*
X160262143Y-90042857D01*
X160119286Y-90042857D01*
X159976429Y-89971428D01*
X159905000Y-89900000D01*
X159833571Y-89757142D01*
X159833571Y-89400000D01*
X159905000Y-89185714D01*
X160333571Y-87900000D02*
X161333571Y-87900000D01*
X159762143Y-88257143D02*
X160833571Y-88614286D01*
X160833571Y-87685714D01*
X151737143Y-90042857D02*
X151808571Y-89828571D01*
X151808571Y-89471428D01*
X151737143Y-89328571D01*
X151665714Y-89257142D01*
X151522857Y-89185714D01*
X151380000Y-89185714D01*
X151237143Y-89257142D01*
X151165714Y-89328571D01*
X151094286Y-89471428D01*
X151022857Y-89757142D01*
X150951429Y-89900000D01*
X150880000Y-89971428D01*
X150737143Y-90042857D01*
X150594286Y-90042857D01*
X150451429Y-89971428D01*
X150380000Y-89900000D01*
X150308571Y-89757142D01*
X150308571Y-89400000D01*
X150380000Y-89185714D01*
X150308571Y-88685714D02*
X150308571Y-87757143D01*
X150880000Y-88257143D01*
X150880000Y-88042857D01*
X150951429Y-87900000D01*
X151022857Y-87828571D01*
X151165714Y-87757143D01*
X151522857Y-87757143D01*
X151665714Y-87828571D01*
X151737143Y-87900000D01*
X151808571Y-88042857D01*
X151808571Y-88471429D01*
X151737143Y-88614286D01*
X151665714Y-88685714D01*
X142212143Y-90042857D02*
X142283571Y-89828571D01*
X142283571Y-89471428D01*
X142212143Y-89328571D01*
X142140714Y-89257142D01*
X141997857Y-89185714D01*
X141855000Y-89185714D01*
X141712143Y-89257142D01*
X141640714Y-89328571D01*
X141569286Y-89471428D01*
X141497857Y-89757142D01*
X141426429Y-89900000D01*
X141355000Y-89971428D01*
X141212143Y-90042857D01*
X141069286Y-90042857D01*
X140926429Y-89971428D01*
X140855000Y-89900000D01*
X140783571Y-89757142D01*
X140783571Y-89400000D01*
X140855000Y-89185714D01*
X140926429Y-88614286D02*
X140855000Y-88542857D01*
X140783571Y-88400000D01*
X140783571Y-88042857D01*
X140855000Y-87900000D01*
X140926429Y-87828571D01*
X141069286Y-87757143D01*
X141212143Y-87757143D01*
X141426429Y-87828571D01*
X142283571Y-88685714D01*
X142283571Y-87757143D01*
X132687143Y-90042857D02*
X132758571Y-89828571D01*
X132758571Y-89471428D01*
X132687143Y-89328571D01*
X132615714Y-89257142D01*
X132472857Y-89185714D01*
X132330000Y-89185714D01*
X132187143Y-89257142D01*
X132115714Y-89328571D01*
X132044286Y-89471428D01*
X131972857Y-89757142D01*
X131901429Y-89900000D01*
X131830000Y-89971428D01*
X131687143Y-90042857D01*
X131544286Y-90042857D01*
X131401429Y-89971428D01*
X131330000Y-89900000D01*
X131258571Y-89757142D01*
X131258571Y-89400000D01*
X131330000Y-89185714D01*
X132758571Y-87757143D02*
X132758571Y-88614286D01*
X132758571Y-88185714D02*
X131258571Y-88185714D01*
X131472857Y-88328571D01*
X131615714Y-88471429D01*
X131687143Y-88614286D01*
X170787143Y-90042857D02*
X170858571Y-89828571D01*
X170858571Y-89471428D01*
X170787143Y-89328571D01*
X170715714Y-89257142D01*
X170572857Y-89185714D01*
X170430000Y-89185714D01*
X170287143Y-89257142D01*
X170215714Y-89328571D01*
X170144286Y-89471428D01*
X170072857Y-89757142D01*
X170001429Y-89900000D01*
X169930000Y-89971428D01*
X169787143Y-90042857D01*
X169644286Y-90042857D01*
X169501429Y-89971428D01*
X169430000Y-89900000D01*
X169358571Y-89757142D01*
X169358571Y-89400000D01*
X169430000Y-89185714D01*
X169358571Y-87828571D02*
X169358571Y-88542857D01*
X170072857Y-88614286D01*
X170001429Y-88542857D01*
X169930000Y-88400000D01*
X169930000Y-88042857D01*
X170001429Y-87900000D01*
X170072857Y-87828571D01*
X170215714Y-87757143D01*
X170572857Y-87757143D01*
X170715714Y-87828571D01*
X170787143Y-87900000D01*
X170858571Y-88042857D01*
X170858571Y-88400000D01*
X170787143Y-88542857D01*
X170715714Y-88614286D01*
X180312143Y-90042857D02*
X180383571Y-89828571D01*
X180383571Y-89471428D01*
X180312143Y-89328571D01*
X180240714Y-89257142D01*
X180097857Y-89185714D01*
X179955000Y-89185714D01*
X179812143Y-89257142D01*
X179740714Y-89328571D01*
X179669286Y-89471428D01*
X179597857Y-89757142D01*
X179526429Y-89900000D01*
X179455000Y-89971428D01*
X179312143Y-90042857D01*
X179169286Y-90042857D01*
X179026429Y-89971428D01*
X178955000Y-89900000D01*
X178883571Y-89757142D01*
X178883571Y-89400000D01*
X178955000Y-89185714D01*
X178883571Y-87900000D02*
X178883571Y-88185714D01*
X178955000Y-88328571D01*
X179026429Y-88400000D01*
X179240714Y-88542857D01*
X179526429Y-88614286D01*
X180097857Y-88614286D01*
X180240714Y-88542857D01*
X180312143Y-88471429D01*
X180383571Y-88328571D01*
X180383571Y-88042857D01*
X180312143Y-87900000D01*
X180240714Y-87828571D01*
X180097857Y-87757143D01*
X179740714Y-87757143D01*
X179597857Y-87828571D01*
X179526429Y-87900000D01*
X179455000Y-88042857D01*
X179455000Y-88328571D01*
X179526429Y-88471429D01*
X179597857Y-88542857D01*
X179740714Y-88614286D01*
X144593571Y-114280000D02*
X145665000Y-114280000D01*
X145879286Y-114351428D01*
X146022143Y-114494285D01*
X146093571Y-114708571D01*
X146093571Y-114851428D01*
X146093571Y-113565714D02*
X144593571Y-113565714D01*
X144593571Y-112994286D01*
X144665000Y-112851428D01*
X144736429Y-112780000D01*
X144879286Y-112708571D01*
X145093571Y-112708571D01*
X145236429Y-112780000D01*
X145307857Y-112851428D01*
X145379286Y-112994286D01*
X145379286Y-113565714D01*
X144736429Y-112137143D02*
X144665000Y-112065714D01*
X144593571Y-111922857D01*
X144593571Y-111565714D01*
X144665000Y-111422857D01*
X144736429Y-111351428D01*
X144879286Y-111280000D01*
X145022143Y-111280000D01*
X145236429Y-111351428D01*
X146093571Y-112208571D01*
X146093571Y-111280000D01*
X127055715Y-114748571D02*
X127555715Y-116248571D01*
X128055715Y-114748571D01*
X128412858Y-114748571D02*
X129412858Y-116248571D01*
X129412858Y-114748571D02*
X128412858Y-116248571D01*
X142053571Y-114280000D02*
X143125000Y-114280000D01*
X143339286Y-114351428D01*
X143482143Y-114494285D01*
X143553571Y-114708571D01*
X143553571Y-114851428D01*
X143553571Y-113565714D02*
X142053571Y-113565714D01*
X142053571Y-112994286D01*
X142125000Y-112851428D01*
X142196429Y-112780000D01*
X142339286Y-112708571D01*
X142553571Y-112708571D01*
X142696429Y-112780000D01*
X142767857Y-112851428D01*
X142839286Y-112994286D01*
X142839286Y-113565714D01*
X143553571Y-111280000D02*
X143553571Y-112137143D01*
X143553571Y-111708571D02*
X142053571Y-111708571D01*
X142267857Y-111851428D01*
X142410714Y-111994286D01*
X142482143Y-112137143D01*
M02*
