G04 #@! TF.FileFunction,Legend,Top*
%FSLAX46Y46*%
G04 Gerber Fmt 4.6, Leading zero omitted, Abs format (unit mm)*
G04 Created by KiCad (PCBNEW 4.0.4-stable) date 05/07/18 16:35:07*
%MOMM*%
%LPD*%
G01*
G04 APERTURE LIST*
%ADD10C,0.100000*%
%ADD11C,0.120000*%
%ADD12C,0.010000*%
%ADD13C,0.150000*%
G04 APERTURE END LIST*
D10*
D11*
X141605000Y-114295000D02*
X141605000Y-107955000D01*
X133985000Y-114295000D02*
X133985000Y-107955000D01*
X133985000Y-112395000D02*
X141605000Y-112395000D01*
X141605000Y-114295000D02*
X133985000Y-114295000D01*
X133985000Y-107955000D02*
X141605000Y-107955000D01*
X156210000Y-102235000D02*
X156210000Y-107315000D01*
X160650000Y-102235000D02*
X160650000Y-107315000D01*
X154310000Y-107315000D02*
X154310000Y-102235000D01*
X154310000Y-107315000D02*
X160650000Y-107315000D01*
X154310000Y-102235000D02*
X160650000Y-102235000D01*
X148590000Y-110490000D02*
X148590000Y-115570000D01*
X153030000Y-110490000D02*
X153030000Y-115570000D01*
X146690000Y-115570000D02*
X146690000Y-110490000D01*
X146690000Y-115570000D02*
X153030000Y-115570000D01*
X146690000Y-110490000D02*
X153030000Y-110490000D01*
D12*
X128181100Y-128625600D02*
X128181100Y-129641600D01*
X127673100Y-129133600D02*
X128689100Y-129133600D01*
X117767100Y-79476600D02*
X123355100Y-79476600D01*
X123355100Y-79476600D02*
X123355100Y-85064600D01*
X123355100Y-85064600D02*
X117767100Y-85064600D01*
X117767100Y-85064600D02*
X117767100Y-79476600D01*
X122085100Y-82270600D02*
G75*
G03X122085100Y-82270600I-1524000J0D01*
G01*
D13*
X114211100Y-131673600D02*
X114211100Y-78333600D01*
D12*
X112306100Y-119608600D02*
X125641100Y-119608600D01*
X125641100Y-119608600D02*
X125641100Y-128498600D01*
X125641100Y-128498600D02*
X112306100Y-128498600D01*
X112306100Y-128498600D02*
X112306100Y-119608600D01*
X107861100Y-87858600D02*
X123736100Y-87858600D01*
X123736100Y-87858600D02*
X123736100Y-99288600D01*
X123736100Y-99288600D02*
X107861100Y-99288600D01*
X107861100Y-99288600D02*
X107861100Y-87858600D01*
X176568100Y-99923600D02*
X176568100Y-107543600D01*
X176568100Y-107543600D02*
X181648100Y-107543600D01*
X176568100Y-99923600D02*
X181648100Y-99923600D01*
X181648100Y-99923600D02*
X181648100Y-107543600D01*
D13*
X180251100Y-129133600D02*
X180251100Y-131673600D01*
X180251100Y-131673600D02*
X114211100Y-131673600D01*
X182791100Y-93827600D02*
X182791100Y-126593600D01*
X182791100Y-126593600D02*
X180251100Y-129133600D01*
X180251100Y-91287600D02*
X182791100Y-93827600D01*
X180251100Y-79857600D02*
X180251100Y-91287600D01*
X180251100Y-79857600D02*
X178727100Y-78333600D01*
X114211100Y-78333600D02*
X178727100Y-78333600D01*
D12*
X129705100Y-129133600D02*
G75*
G03X129705100Y-129133600I-1524000J0D01*
G01*
X181775100Y-124053600D02*
G75*
G03X181775100Y-124053600I-1524000J0D01*
G01*
X179743100Y-124053600D02*
X180759100Y-124053600D01*
X180251100Y-123545600D02*
X180251100Y-124561600D01*
X181775100Y-96113600D02*
G75*
G03X181775100Y-96113600I-1524000J0D01*
G01*
X180759100Y-96113600D02*
X179743100Y-96113600D01*
X180251100Y-95605600D02*
X180251100Y-96621600D01*
D13*
X157137100Y-79603600D02*
X157137100Y-82143600D01*
X157137100Y-82143600D02*
X131737100Y-82143600D01*
X131737100Y-82143600D02*
X131737100Y-79603600D01*
X131737100Y-79603600D02*
X157137100Y-79603600D01*
D12*
X130975100Y-80873600D02*
G75*
G03X130975100Y-80873600I-1524000J0D01*
G01*
X128943100Y-80873600D02*
X129959100Y-80873600D01*
X129451100Y-80365600D02*
X129451100Y-81381600D01*
D13*
X158661100Y-79603600D02*
X178981100Y-79603600D01*
X178981100Y-79603600D02*
X178981100Y-82143600D01*
X178981100Y-82143600D02*
X158661100Y-82143600D01*
X158661100Y-82143600D02*
X158661100Y-79603600D01*
X163741100Y-127863600D02*
X178981100Y-127863600D01*
X178981100Y-127863600D02*
X178981100Y-130403600D01*
X178981100Y-130403600D02*
X163741100Y-130403600D01*
X163741100Y-130403600D02*
X163741100Y-127863600D01*
X140881100Y-130403600D02*
X140881100Y-127863600D01*
X140881100Y-127863600D02*
X161201100Y-127863600D01*
X161201100Y-127863600D02*
X161201100Y-130403600D01*
X161201100Y-130403600D02*
X140881100Y-130403600D01*
D11*
X151190000Y-101330000D02*
G75*
G02X151190000Y-99330000I0J1000000D01*
G01*
X151190000Y-99330000D02*
X151190000Y-98080000D01*
X151190000Y-98080000D02*
X130750000Y-98080000D01*
X130750000Y-98080000D02*
X130750000Y-102580000D01*
X130750000Y-102580000D02*
X151190000Y-102580000D01*
X151190000Y-102580000D02*
X151190000Y-101330000D01*
X128020000Y-123180000D02*
G75*
G03X128020000Y-123180000I-6100000J0D01*
G01*
X180400000Y-107950000D02*
X180400000Y-100270000D01*
X180400000Y-100270000D02*
X177740000Y-100270000D01*
X177740000Y-100270000D02*
X177740000Y-107950000D01*
X177740000Y-107950000D02*
X180400000Y-107950000D01*
X180400000Y-109220000D02*
X180400000Y-110550000D01*
X180400000Y-110550000D02*
X179070000Y-110550000D01*
X163830000Y-111130000D02*
X156210000Y-111130000D01*
X163830000Y-115570000D02*
X156210000Y-115570000D01*
X163830000Y-117470000D02*
X156210000Y-117470000D01*
X171450000Y-117470000D02*
X171450000Y-111130000D01*
X156210000Y-117470000D02*
X156210000Y-111130000D01*
X163830000Y-115570000D02*
X171450000Y-115570000D01*
X171450000Y-117470000D02*
X163830000Y-117470000D01*
X163830000Y-111130000D02*
X171450000Y-111130000D01*
X167640000Y-102235000D02*
X167640000Y-107315000D01*
X172080000Y-102235000D02*
X172080000Y-107315000D01*
X165740000Y-107315000D02*
X165740000Y-102235000D01*
X165740000Y-107315000D02*
X172080000Y-107315000D01*
X165740000Y-102235000D02*
X172080000Y-102235000D01*
X166370000Y-99060000D02*
X171450000Y-99060000D01*
X166370000Y-94620000D02*
X171450000Y-94620000D01*
X171450000Y-100960000D02*
X166370000Y-100960000D01*
X171450000Y-100960000D02*
X171450000Y-94620000D01*
X166370000Y-100960000D02*
X166370000Y-94620000D01*
X158160000Y-97565000D02*
X158160000Y-99285000D01*
X158160000Y-99285000D02*
X161880000Y-99285000D01*
X161880000Y-99285000D02*
X161880000Y-97565000D01*
X161880000Y-97565000D02*
X158160000Y-97565000D01*
X157090000Y-98425000D02*
X158160000Y-98425000D01*
X162950000Y-98425000D02*
X161880000Y-98425000D01*
X161880000Y-96110000D02*
X161880000Y-94390000D01*
X161880000Y-94390000D02*
X158160000Y-94390000D01*
X158160000Y-94390000D02*
X158160000Y-96110000D01*
X158160000Y-96110000D02*
X161880000Y-96110000D01*
X162950000Y-95250000D02*
X161880000Y-95250000D01*
X157090000Y-95250000D02*
X158160000Y-95250000D01*
X122560000Y-115570000D02*
X128900000Y-115570000D01*
X122560000Y-107950000D02*
X128900000Y-107950000D01*
X124460000Y-107950000D02*
X124460000Y-115570000D01*
X122560000Y-115570000D02*
X122560000Y-107950000D01*
X128900000Y-107950000D02*
X128900000Y-115570000D01*
X130815000Y-124460000D02*
X137155000Y-124460000D01*
X130815000Y-116840000D02*
X137155000Y-116840000D01*
X132715000Y-116840000D02*
X132715000Y-124460000D01*
X130815000Y-124460000D02*
X130815000Y-116840000D01*
X137155000Y-116840000D02*
X137155000Y-124460000D01*
X140975000Y-124460000D02*
X147315000Y-124460000D01*
X140975000Y-116840000D02*
X147315000Y-116840000D01*
X142875000Y-116840000D02*
X142875000Y-124460000D01*
X140975000Y-124460000D02*
X140975000Y-116840000D01*
X147315000Y-116840000D02*
X147315000Y-124460000D01*
X152405000Y-124460000D02*
X158745000Y-124460000D01*
X152405000Y-116840000D02*
X158745000Y-116840000D01*
X154305000Y-116840000D02*
X154305000Y-124460000D01*
X152405000Y-124460000D02*
X152405000Y-116840000D01*
X158745000Y-116840000D02*
X158745000Y-124460000D01*
X163200000Y-124460000D02*
X169540000Y-124460000D01*
X163200000Y-116840000D02*
X169540000Y-116840000D01*
X165100000Y-116840000D02*
X165100000Y-124460000D01*
X163200000Y-124460000D02*
X163200000Y-116840000D01*
X169540000Y-116840000D02*
X169540000Y-124460000D01*
X172725000Y-124460000D02*
X179065000Y-124460000D01*
X172725000Y-116840000D02*
X179065000Y-116840000D01*
X174625000Y-116840000D02*
X174625000Y-124460000D01*
X172725000Y-124460000D02*
X172725000Y-116840000D01*
X179065000Y-116840000D02*
X179065000Y-124460000D01*
X179676000Y-91358000D02*
X177956000Y-91358000D01*
X177956000Y-91358000D02*
X177956000Y-95078000D01*
X177956000Y-95078000D02*
X179676000Y-95078000D01*
X179676000Y-95078000D02*
X179676000Y-91358000D01*
X178816000Y-90288000D02*
X178816000Y-91358000D01*
X178816000Y-96148000D02*
X178816000Y-95078000D01*
X125685000Y-105000000D02*
X125685000Y-103280000D01*
X125685000Y-103280000D02*
X121965000Y-103280000D01*
X121965000Y-103280000D02*
X121965000Y-105000000D01*
X121965000Y-105000000D02*
X125685000Y-105000000D01*
X126755000Y-104140000D02*
X125685000Y-104140000D01*
X120895000Y-104140000D02*
X121965000Y-104140000D01*
X168270000Y-85090000D02*
X161930000Y-85090000D01*
X168270000Y-92710000D02*
X161930000Y-92710000D01*
X166370000Y-92710000D02*
X166370000Y-85090000D01*
X168270000Y-85090000D02*
X168270000Y-92710000D01*
X161930000Y-92710000D02*
X161930000Y-85090000D01*
X153030000Y-85090000D02*
X146690000Y-85090000D01*
X153030000Y-92710000D02*
X146690000Y-92710000D01*
X151130000Y-92710000D02*
X151130000Y-85090000D01*
X153030000Y-85090000D02*
X153030000Y-92710000D01*
X146690000Y-92710000D02*
X146690000Y-85090000D01*
X142235000Y-85090000D02*
X135895000Y-85090000D01*
X142235000Y-92710000D02*
X135895000Y-92710000D01*
X140335000Y-92710000D02*
X140335000Y-85090000D01*
X142235000Y-85090000D02*
X142235000Y-92710000D01*
X135895000Y-92710000D02*
X135895000Y-85090000D01*
X132075000Y-85090000D02*
X125735000Y-85090000D01*
X132075000Y-92710000D02*
X125735000Y-92710000D01*
X130175000Y-92710000D02*
X130175000Y-85090000D01*
X132075000Y-85090000D02*
X132075000Y-92710000D01*
X125735000Y-92710000D02*
X125735000Y-85090000D01*
D13*
X136911667Y-114377381D02*
X136911667Y-115091667D01*
X136864047Y-115234524D01*
X136768809Y-115329762D01*
X136625952Y-115377381D01*
X136530714Y-115377381D01*
X137387857Y-115377381D02*
X137387857Y-114377381D01*
X137768810Y-114377381D01*
X137864048Y-114425000D01*
X137911667Y-114472619D01*
X137959286Y-114567857D01*
X137959286Y-114710714D01*
X137911667Y-114805952D01*
X137864048Y-114853571D01*
X137768810Y-114901190D01*
X137387857Y-114901190D01*
X138911667Y-115377381D02*
X138340238Y-115377381D01*
X138625952Y-115377381D02*
X138625952Y-114377381D01*
X138530714Y-114520238D01*
X138435476Y-114615476D01*
X138340238Y-114663095D01*
X154032381Y-105989286D02*
X153032381Y-105989286D01*
X153032381Y-105608333D01*
X153080000Y-105513095D01*
X153127619Y-105465476D01*
X153222857Y-105417857D01*
X153365714Y-105417857D01*
X153460952Y-105465476D01*
X153508571Y-105513095D01*
X153556190Y-105608333D01*
X153556190Y-105989286D01*
X154032381Y-104465476D02*
X154032381Y-105036905D01*
X154032381Y-104751191D02*
X153032381Y-104751191D01*
X153175238Y-104846429D01*
X153270476Y-104941667D01*
X153318095Y-105036905D01*
X154032381Y-103513095D02*
X154032381Y-104084524D01*
X154032381Y-103798810D02*
X153032381Y-103798810D01*
X153175238Y-103894048D01*
X153270476Y-103989286D01*
X153318095Y-104084524D01*
X146412381Y-114244286D02*
X145412381Y-114244286D01*
X145412381Y-113863333D01*
X145460000Y-113768095D01*
X145507619Y-113720476D01*
X145602857Y-113672857D01*
X145745714Y-113672857D01*
X145840952Y-113720476D01*
X145888571Y-113768095D01*
X145936190Y-113863333D01*
X145936190Y-114244286D01*
X146412381Y-112720476D02*
X146412381Y-113291905D01*
X146412381Y-113006191D02*
X145412381Y-113006191D01*
X145555238Y-113101429D01*
X145650476Y-113196667D01*
X145698095Y-113291905D01*
X145507619Y-112339524D02*
X145460000Y-112291905D01*
X145412381Y-112196667D01*
X145412381Y-111958571D01*
X145460000Y-111863333D01*
X145507619Y-111815714D01*
X145602857Y-111768095D01*
X145698095Y-111768095D01*
X145840952Y-111815714D01*
X146412381Y-112387143D01*
X146412381Y-111768095D01*
X146643958Y-101642171D02*
X147643958Y-103142171D01*
X147643958Y-101642171D02*
X146643958Y-103142171D01*
X148143957Y-102713600D02*
X148858243Y-102713600D01*
X148001100Y-103142171D02*
X148501100Y-101642171D01*
X149001100Y-103142171D01*
X150286814Y-103142171D02*
X149429671Y-103142171D01*
X149858243Y-103142171D02*
X149858243Y-101642171D01*
X149715386Y-101856457D01*
X149572528Y-101999314D01*
X149429671Y-102070743D01*
X137858243Y-106523600D02*
X138572529Y-106523600D01*
X137715386Y-106952171D02*
X138215386Y-105452171D01*
X138715386Y-106952171D01*
X139215386Y-106952171D02*
X139215386Y-105952171D01*
X139215386Y-106237886D02*
X139286814Y-106095029D01*
X139358243Y-106023600D01*
X139501100Y-105952171D01*
X139643957Y-105952171D01*
X140786814Y-106952171D02*
X140786814Y-105452171D01*
X140786814Y-106880743D02*
X140643957Y-106952171D01*
X140358243Y-106952171D01*
X140215385Y-106880743D01*
X140143957Y-106809314D01*
X140072528Y-106666457D01*
X140072528Y-106237886D01*
X140143957Y-106095029D01*
X140215385Y-106023600D01*
X140358243Y-105952171D01*
X140643957Y-105952171D01*
X140786814Y-106023600D01*
X142143957Y-105952171D02*
X142143957Y-106952171D01*
X141501100Y-105952171D02*
X141501100Y-106737886D01*
X141572528Y-106880743D01*
X141715386Y-106952171D01*
X141929671Y-106952171D01*
X142072528Y-106880743D01*
X142143957Y-106809314D01*
X142858243Y-106952171D02*
X142858243Y-105952171D01*
X142858243Y-105452171D02*
X142786814Y-105523600D01*
X142858243Y-105595029D01*
X142929671Y-105523600D01*
X142858243Y-105452171D01*
X142858243Y-105595029D01*
X143572529Y-105952171D02*
X143572529Y-106952171D01*
X143572529Y-106095029D02*
X143643957Y-106023600D01*
X143786815Y-105952171D01*
X144001100Y-105952171D01*
X144143957Y-106023600D01*
X144215386Y-106166457D01*
X144215386Y-106952171D01*
X145143958Y-106952171D02*
X145001100Y-106880743D01*
X144929672Y-106809314D01*
X144858243Y-106666457D01*
X144858243Y-106237886D01*
X144929672Y-106095029D01*
X145001100Y-106023600D01*
X145143958Y-105952171D01*
X145358243Y-105952171D01*
X145501100Y-106023600D01*
X145572529Y-106095029D01*
X145643958Y-106237886D01*
X145643958Y-106666457D01*
X145572529Y-106809314D01*
X145501100Y-106880743D01*
X145358243Y-106952171D01*
X145143958Y-106952171D01*
X145929672Y-107095029D02*
X147072529Y-107095029D01*
X147429672Y-105452171D02*
X147429672Y-106666457D01*
X147501100Y-106809314D01*
X147572529Y-106880743D01*
X147715386Y-106952171D01*
X148001100Y-106952171D01*
X148143958Y-106880743D01*
X148215386Y-106809314D01*
X148286815Y-106666457D01*
X148286815Y-105452171D01*
X149001101Y-105952171D02*
X149001101Y-106952171D01*
X149001101Y-106095029D02*
X149072529Y-106023600D01*
X149215387Y-105952171D01*
X149429672Y-105952171D01*
X149572529Y-106023600D01*
X149643958Y-106166457D01*
X149643958Y-106952171D01*
X150572530Y-106952171D02*
X150429672Y-106880743D01*
X150358244Y-106809314D01*
X150286815Y-106666457D01*
X150286815Y-106237886D01*
X150358244Y-106095029D01*
X150429672Y-106023600D01*
X150572530Y-105952171D01*
X150786815Y-105952171D01*
X150929672Y-106023600D01*
X151001101Y-106095029D01*
X151072530Y-106237886D01*
X151072530Y-106666457D01*
X151001101Y-106809314D01*
X150929672Y-106880743D01*
X150786815Y-106952171D01*
X150572530Y-106952171D01*
X151358244Y-107095029D02*
X152501101Y-107095029D01*
X152786815Y-106880743D02*
X153001101Y-106952171D01*
X153358244Y-106952171D01*
X153501101Y-106880743D01*
X153572530Y-106809314D01*
X153643958Y-106666457D01*
X153643958Y-106523600D01*
X153572530Y-106380743D01*
X153501101Y-106309314D01*
X153358244Y-106237886D01*
X153072530Y-106166457D01*
X152929672Y-106095029D01*
X152858244Y-106023600D01*
X152786815Y-105880743D01*
X152786815Y-105737886D01*
X152858244Y-105595029D01*
X152929672Y-105523600D01*
X153072530Y-105452171D01*
X153429672Y-105452171D01*
X153643958Y-105523600D01*
X154286815Y-106952171D02*
X154286815Y-105452171D01*
X154929672Y-106952171D02*
X154929672Y-106166457D01*
X154858243Y-106023600D01*
X154715386Y-105952171D01*
X154501101Y-105952171D01*
X154358243Y-106023600D01*
X154286815Y-106095029D01*
X155643958Y-106952171D02*
X155643958Y-105952171D01*
X155643958Y-105452171D02*
X155572529Y-105523600D01*
X155643958Y-105595029D01*
X155715386Y-105523600D01*
X155643958Y-105452171D01*
X155643958Y-105595029D01*
X156929672Y-106880743D02*
X156786815Y-106952171D01*
X156501101Y-106952171D01*
X156358244Y-106880743D01*
X156286815Y-106737886D01*
X156286815Y-106166457D01*
X156358244Y-106023600D01*
X156501101Y-105952171D01*
X156786815Y-105952171D01*
X156929672Y-106023600D01*
X157001101Y-106166457D01*
X157001101Y-106309314D01*
X156286815Y-106452171D01*
X157858244Y-106952171D02*
X157715386Y-106880743D01*
X157643958Y-106737886D01*
X157643958Y-105452171D01*
X159072529Y-106952171D02*
X159072529Y-105452171D01*
X159072529Y-106880743D02*
X158929672Y-106952171D01*
X158643958Y-106952171D01*
X158501100Y-106880743D01*
X158429672Y-106809314D01*
X158358243Y-106666457D01*
X158358243Y-106237886D01*
X158429672Y-106095029D01*
X158501100Y-106023600D01*
X158643958Y-105952171D01*
X158929672Y-105952171D01*
X159072529Y-106023600D01*
X151642381Y-101091905D02*
X152451905Y-101091905D01*
X152547143Y-101044286D01*
X152594762Y-100996667D01*
X152642381Y-100901429D01*
X152642381Y-100710952D01*
X152594762Y-100615714D01*
X152547143Y-100568095D01*
X152451905Y-100520476D01*
X151642381Y-100520476D01*
X152642381Y-99520476D02*
X152642381Y-100091905D01*
X152642381Y-99806191D02*
X151642381Y-99806191D01*
X151785238Y-99901429D01*
X151880476Y-99996667D01*
X151928095Y-100091905D01*
X129524762Y-124441905D02*
X129572381Y-124299048D01*
X129572381Y-124060952D01*
X129524762Y-123965714D01*
X129477143Y-123918095D01*
X129381905Y-123870476D01*
X129286667Y-123870476D01*
X129191429Y-123918095D01*
X129143810Y-123965714D01*
X129096190Y-124060952D01*
X129048571Y-124251429D01*
X129000952Y-124346667D01*
X128953333Y-124394286D01*
X128858095Y-124441905D01*
X128762857Y-124441905D01*
X128667619Y-124394286D01*
X128620000Y-124346667D01*
X128572381Y-124251429D01*
X128572381Y-124013333D01*
X128620000Y-123870476D01*
X129572381Y-123441905D02*
X128572381Y-123441905D01*
X128572381Y-123060952D01*
X128620000Y-122965714D01*
X128667619Y-122918095D01*
X128762857Y-122870476D01*
X128905714Y-122870476D01*
X129000952Y-122918095D01*
X129048571Y-122965714D01*
X129096190Y-123060952D01*
X129096190Y-123441905D01*
X129572381Y-121918095D02*
X129572381Y-122489524D01*
X129572381Y-122203810D02*
X128572381Y-122203810D01*
X128715238Y-122299048D01*
X128810476Y-122394286D01*
X128858095Y-122489524D01*
X124531429Y-119750952D02*
X124531429Y-118989047D01*
X124912381Y-119369999D02*
X124150476Y-119369999D01*
X178331905Y-112002381D02*
X178331905Y-111002381D01*
X178712858Y-111002381D01*
X178808096Y-111050000D01*
X178855715Y-111097619D01*
X178903334Y-111192857D01*
X178903334Y-111335714D01*
X178855715Y-111430952D01*
X178808096Y-111478571D01*
X178712858Y-111526190D01*
X178331905Y-111526190D01*
X179760477Y-111002381D02*
X179570000Y-111002381D01*
X179474762Y-111050000D01*
X179427143Y-111097619D01*
X179331905Y-111240476D01*
X179284286Y-111430952D01*
X179284286Y-111811905D01*
X179331905Y-111907143D01*
X179379524Y-111954762D01*
X179474762Y-112002381D01*
X179665239Y-112002381D01*
X179760477Y-111954762D01*
X179808096Y-111907143D01*
X179855715Y-111811905D01*
X179855715Y-111573810D01*
X179808096Y-111478571D01*
X179760477Y-111430952D01*
X179665239Y-111383333D01*
X179474762Y-111383333D01*
X179379524Y-111430952D01*
X179331905Y-111478571D01*
X179284286Y-111573810D01*
X163091905Y-118502381D02*
X163091905Y-117502381D01*
X163472858Y-117502381D01*
X163568096Y-117550000D01*
X163615715Y-117597619D01*
X163663334Y-117692857D01*
X163663334Y-117835714D01*
X163615715Y-117930952D01*
X163568096Y-117978571D01*
X163472858Y-118026190D01*
X163091905Y-118026190D01*
X164568096Y-117502381D02*
X164091905Y-117502381D01*
X164044286Y-117978571D01*
X164091905Y-117930952D01*
X164187143Y-117883333D01*
X164425239Y-117883333D01*
X164520477Y-117930952D01*
X164568096Y-117978571D01*
X164615715Y-118073810D01*
X164615715Y-118311905D01*
X164568096Y-118407143D01*
X164520477Y-118454762D01*
X164425239Y-118502381D01*
X164187143Y-118502381D01*
X164091905Y-118454762D01*
X164044286Y-118407143D01*
X165462381Y-105989286D02*
X164462381Y-105989286D01*
X164462381Y-105608333D01*
X164510000Y-105513095D01*
X164557619Y-105465476D01*
X164652857Y-105417857D01*
X164795714Y-105417857D01*
X164890952Y-105465476D01*
X164938571Y-105513095D01*
X164986190Y-105608333D01*
X164986190Y-105989286D01*
X165462381Y-104465476D02*
X165462381Y-105036905D01*
X165462381Y-104751191D02*
X164462381Y-104751191D01*
X164605238Y-104846429D01*
X164700476Y-104941667D01*
X164748095Y-105036905D01*
X164462381Y-103560714D02*
X164462381Y-104036905D01*
X164938571Y-104084524D01*
X164890952Y-104036905D01*
X164843333Y-103941667D01*
X164843333Y-103703571D01*
X164890952Y-103608333D01*
X164938571Y-103560714D01*
X165033810Y-103513095D01*
X165271905Y-103513095D01*
X165367143Y-103560714D01*
X165414762Y-103608333D01*
X165462381Y-103703571D01*
X165462381Y-103941667D01*
X165414762Y-104036905D01*
X165367143Y-104084524D01*
X167695714Y-102142381D02*
X167695714Y-101142381D01*
X168076667Y-101142381D01*
X168171905Y-101190000D01*
X168219524Y-101237619D01*
X168267143Y-101332857D01*
X168267143Y-101475714D01*
X168219524Y-101570952D01*
X168171905Y-101618571D01*
X168076667Y-101666190D01*
X167695714Y-101666190D01*
X169219524Y-102142381D02*
X168648095Y-102142381D01*
X168933809Y-102142381D02*
X168933809Y-101142381D01*
X168838571Y-101285238D01*
X168743333Y-101380476D01*
X168648095Y-101428095D01*
X170076667Y-101142381D02*
X169886190Y-101142381D01*
X169790952Y-101190000D01*
X169743333Y-101237619D01*
X169648095Y-101380476D01*
X169600476Y-101570952D01*
X169600476Y-101951905D01*
X169648095Y-102047143D01*
X169695714Y-102094762D01*
X169790952Y-102142381D01*
X169981429Y-102142381D01*
X170076667Y-102094762D01*
X170124286Y-102047143D01*
X170171905Y-101951905D01*
X170171905Y-101713810D01*
X170124286Y-101618571D01*
X170076667Y-101570952D01*
X169981429Y-101523333D01*
X169790952Y-101523333D01*
X169695714Y-101570952D01*
X169648095Y-101618571D01*
X169600476Y-101713810D01*
X159853334Y-97017381D02*
X159520000Y-96541190D01*
X159281905Y-97017381D02*
X159281905Y-96017381D01*
X159662858Y-96017381D01*
X159758096Y-96065000D01*
X159805715Y-96112619D01*
X159853334Y-96207857D01*
X159853334Y-96350714D01*
X159805715Y-96445952D01*
X159758096Y-96493571D01*
X159662858Y-96541190D01*
X159281905Y-96541190D01*
X160805715Y-97017381D02*
X160234286Y-97017381D01*
X160520000Y-97017381D02*
X160520000Y-96017381D01*
X160424762Y-96160238D01*
X160329524Y-96255476D01*
X160234286Y-96303095D01*
X159853334Y-97562381D02*
X159520000Y-97086190D01*
X159281905Y-97562381D02*
X159281905Y-96562381D01*
X159662858Y-96562381D01*
X159758096Y-96610000D01*
X159805715Y-96657619D01*
X159853334Y-96752857D01*
X159853334Y-96895714D01*
X159805715Y-96990952D01*
X159758096Y-97038571D01*
X159662858Y-97086190D01*
X159281905Y-97086190D01*
X160234286Y-96657619D02*
X160281905Y-96610000D01*
X160377143Y-96562381D01*
X160615239Y-96562381D01*
X160710477Y-96610000D01*
X160758096Y-96657619D01*
X160805715Y-96752857D01*
X160805715Y-96848095D01*
X160758096Y-96990952D01*
X160186667Y-97562381D01*
X160805715Y-97562381D01*
X122382381Y-112448095D02*
X121382381Y-112448095D01*
X121382381Y-112067142D01*
X121430000Y-111971904D01*
X121477619Y-111924285D01*
X121572857Y-111876666D01*
X121715714Y-111876666D01*
X121810952Y-111924285D01*
X121858571Y-111971904D01*
X121906190Y-112067142D01*
X121906190Y-112448095D01*
X122382381Y-110924285D02*
X122382381Y-111495714D01*
X122382381Y-111210000D02*
X121382381Y-111210000D01*
X121525238Y-111305238D01*
X121620476Y-111400476D01*
X121668095Y-111495714D01*
X130637381Y-121338095D02*
X129637381Y-121338095D01*
X129637381Y-120957142D01*
X129685000Y-120861904D01*
X129732619Y-120814285D01*
X129827857Y-120766666D01*
X129970714Y-120766666D01*
X130065952Y-120814285D01*
X130113571Y-120861904D01*
X130161190Y-120957142D01*
X130161190Y-121338095D01*
X129732619Y-120385714D02*
X129685000Y-120338095D01*
X129637381Y-120242857D01*
X129637381Y-120004761D01*
X129685000Y-119909523D01*
X129732619Y-119861904D01*
X129827857Y-119814285D01*
X129923095Y-119814285D01*
X130065952Y-119861904D01*
X130637381Y-120433333D01*
X130637381Y-119814285D01*
X140797381Y-121338095D02*
X139797381Y-121338095D01*
X139797381Y-120957142D01*
X139845000Y-120861904D01*
X139892619Y-120814285D01*
X139987857Y-120766666D01*
X140130714Y-120766666D01*
X140225952Y-120814285D01*
X140273571Y-120861904D01*
X140321190Y-120957142D01*
X140321190Y-121338095D01*
X139797381Y-120433333D02*
X139797381Y-119814285D01*
X140178333Y-120147619D01*
X140178333Y-120004761D01*
X140225952Y-119909523D01*
X140273571Y-119861904D01*
X140368810Y-119814285D01*
X140606905Y-119814285D01*
X140702143Y-119861904D01*
X140749762Y-119909523D01*
X140797381Y-120004761D01*
X140797381Y-120290476D01*
X140749762Y-120385714D01*
X140702143Y-120433333D01*
X152227381Y-121338095D02*
X151227381Y-121338095D01*
X151227381Y-120957142D01*
X151275000Y-120861904D01*
X151322619Y-120814285D01*
X151417857Y-120766666D01*
X151560714Y-120766666D01*
X151655952Y-120814285D01*
X151703571Y-120861904D01*
X151751190Y-120957142D01*
X151751190Y-121338095D01*
X151560714Y-119909523D02*
X152227381Y-119909523D01*
X151179762Y-120147619D02*
X151894048Y-120385714D01*
X151894048Y-119766666D01*
X163022381Y-121814286D02*
X162022381Y-121814286D01*
X162022381Y-121433333D01*
X162070000Y-121338095D01*
X162117619Y-121290476D01*
X162212857Y-121242857D01*
X162355714Y-121242857D01*
X162450952Y-121290476D01*
X162498571Y-121338095D01*
X162546190Y-121433333D01*
X162546190Y-121814286D01*
X163022381Y-120290476D02*
X163022381Y-120861905D01*
X163022381Y-120576191D02*
X162022381Y-120576191D01*
X162165238Y-120671429D01*
X162260476Y-120766667D01*
X162308095Y-120861905D01*
X162022381Y-119957143D02*
X162022381Y-119338095D01*
X162403333Y-119671429D01*
X162403333Y-119528571D01*
X162450952Y-119433333D01*
X162498571Y-119385714D01*
X162593810Y-119338095D01*
X162831905Y-119338095D01*
X162927143Y-119385714D01*
X162974762Y-119433333D01*
X163022381Y-119528571D01*
X163022381Y-119814286D01*
X162974762Y-119909524D01*
X162927143Y-119957143D01*
X172547381Y-121814286D02*
X171547381Y-121814286D01*
X171547381Y-121433333D01*
X171595000Y-121338095D01*
X171642619Y-121290476D01*
X171737857Y-121242857D01*
X171880714Y-121242857D01*
X171975952Y-121290476D01*
X172023571Y-121338095D01*
X172071190Y-121433333D01*
X172071190Y-121814286D01*
X172547381Y-120290476D02*
X172547381Y-120861905D01*
X172547381Y-120576191D02*
X171547381Y-120576191D01*
X171690238Y-120671429D01*
X171785476Y-120766667D01*
X171833095Y-120861905D01*
X171880714Y-119433333D02*
X172547381Y-119433333D01*
X171499762Y-119671429D02*
X172214048Y-119909524D01*
X172214048Y-119290476D01*
X181128381Y-93384666D02*
X180652190Y-93718000D01*
X181128381Y-93956095D02*
X180128381Y-93956095D01*
X180128381Y-93575142D01*
X180176000Y-93479904D01*
X180223619Y-93432285D01*
X180318857Y-93384666D01*
X180461714Y-93384666D01*
X180556952Y-93432285D01*
X180604571Y-93479904D01*
X180652190Y-93575142D01*
X180652190Y-93956095D01*
X180128381Y-93051333D02*
X180128381Y-92432285D01*
X180509333Y-92765619D01*
X180509333Y-92622761D01*
X180556952Y-92527523D01*
X180604571Y-92479904D01*
X180699810Y-92432285D01*
X180937905Y-92432285D01*
X181033143Y-92479904D01*
X181080762Y-92527523D01*
X181128381Y-92622761D01*
X181128381Y-92908476D01*
X181080762Y-93003714D01*
X181033143Y-93051333D01*
X123658334Y-106452381D02*
X123325000Y-105976190D01*
X123086905Y-106452381D02*
X123086905Y-105452381D01*
X123467858Y-105452381D01*
X123563096Y-105500000D01*
X123610715Y-105547619D01*
X123658334Y-105642857D01*
X123658334Y-105785714D01*
X123610715Y-105880952D01*
X123563096Y-105928571D01*
X123467858Y-105976190D01*
X123086905Y-105976190D01*
X124515477Y-105785714D02*
X124515477Y-106452381D01*
X124277381Y-105404762D02*
X124039286Y-106119048D01*
X124658334Y-106119048D01*
X169352381Y-89688095D02*
X168352381Y-89688095D01*
X168352381Y-89307142D01*
X168400000Y-89211904D01*
X168447619Y-89164285D01*
X168542857Y-89116666D01*
X168685714Y-89116666D01*
X168780952Y-89164285D01*
X168828571Y-89211904D01*
X168876190Y-89307142D01*
X168876190Y-89688095D01*
X168352381Y-88783333D02*
X168352381Y-88116666D01*
X169352381Y-88545238D01*
X154112381Y-89688095D02*
X153112381Y-89688095D01*
X153112381Y-89307142D01*
X153160000Y-89211904D01*
X153207619Y-89164285D01*
X153302857Y-89116666D01*
X153445714Y-89116666D01*
X153540952Y-89164285D01*
X153588571Y-89211904D01*
X153636190Y-89307142D01*
X153636190Y-89688095D01*
X153540952Y-88545238D02*
X153493333Y-88640476D01*
X153445714Y-88688095D01*
X153350476Y-88735714D01*
X153302857Y-88735714D01*
X153207619Y-88688095D01*
X153160000Y-88640476D01*
X153112381Y-88545238D01*
X153112381Y-88354761D01*
X153160000Y-88259523D01*
X153207619Y-88211904D01*
X153302857Y-88164285D01*
X153350476Y-88164285D01*
X153445714Y-88211904D01*
X153493333Y-88259523D01*
X153540952Y-88354761D01*
X153540952Y-88545238D01*
X153588571Y-88640476D01*
X153636190Y-88688095D01*
X153731429Y-88735714D01*
X153921905Y-88735714D01*
X154017143Y-88688095D01*
X154064762Y-88640476D01*
X154112381Y-88545238D01*
X154112381Y-88354761D01*
X154064762Y-88259523D01*
X154017143Y-88211904D01*
X153921905Y-88164285D01*
X153731429Y-88164285D01*
X153636190Y-88211904D01*
X153588571Y-88259523D01*
X153540952Y-88354761D01*
X143317381Y-89688095D02*
X142317381Y-89688095D01*
X142317381Y-89307142D01*
X142365000Y-89211904D01*
X142412619Y-89164285D01*
X142507857Y-89116666D01*
X142650714Y-89116666D01*
X142745952Y-89164285D01*
X142793571Y-89211904D01*
X142841190Y-89307142D01*
X142841190Y-89688095D01*
X143317381Y-88640476D02*
X143317381Y-88450000D01*
X143269762Y-88354761D01*
X143222143Y-88307142D01*
X143079286Y-88211904D01*
X142888810Y-88164285D01*
X142507857Y-88164285D01*
X142412619Y-88211904D01*
X142365000Y-88259523D01*
X142317381Y-88354761D01*
X142317381Y-88545238D01*
X142365000Y-88640476D01*
X142412619Y-88688095D01*
X142507857Y-88735714D01*
X142745952Y-88735714D01*
X142841190Y-88688095D01*
X142888810Y-88640476D01*
X142936429Y-88545238D01*
X142936429Y-88354761D01*
X142888810Y-88259523D01*
X142841190Y-88211904D01*
X142745952Y-88164285D01*
X133157381Y-90164286D02*
X132157381Y-90164286D01*
X132157381Y-89783333D01*
X132205000Y-89688095D01*
X132252619Y-89640476D01*
X132347857Y-89592857D01*
X132490714Y-89592857D01*
X132585952Y-89640476D01*
X132633571Y-89688095D01*
X132681190Y-89783333D01*
X132681190Y-90164286D01*
X133157381Y-88640476D02*
X133157381Y-89211905D01*
X133157381Y-88926191D02*
X132157381Y-88926191D01*
X132300238Y-89021429D01*
X132395476Y-89116667D01*
X132443095Y-89211905D01*
X132157381Y-88021429D02*
X132157381Y-87926190D01*
X132205000Y-87830952D01*
X132252619Y-87783333D01*
X132347857Y-87735714D01*
X132538333Y-87688095D01*
X132776429Y-87688095D01*
X132966905Y-87735714D01*
X133062143Y-87783333D01*
X133109762Y-87830952D01*
X133157381Y-87926190D01*
X133157381Y-88021429D01*
X133109762Y-88116667D01*
X133062143Y-88164286D01*
X132966905Y-88211905D01*
X132776429Y-88259524D01*
X132538333Y-88259524D01*
X132347857Y-88211905D01*
X132252619Y-88164286D01*
X132205000Y-88116667D01*
X132157381Y-88021429D01*
M02*
